# Blender 4.3.0
# www.blender.org
mtllib bench_legged.mtl
o Cube.005
v 1.000000 0.600000 -0.300000
v -1.000000 0.000000 0.300000
v 0.800000 0.000000 0.300000
v -1.000000 0.564706 0.300000
v 0.800000 0.564706 0.300000
v 1.000000 0.600000 0.300000
v -1.000000 0.000000 -0.300000
v 0.800000 0.000000 -0.300000
v 0.800000 0.564706 -0.300000
v -1.000000 0.564706 -0.300000
v -0.800000 0.000000 0.300000
v 1.000000 0.000000 0.300000
v -1.000000 0.600000 -0.300000
v -0.800000 0.564706 0.300000
v 1.000000 0.564706 0.300000
v -0.800000 0.000000 -0.300000
v 1.000000 0.000000 -0.300000
v -1.000000 0.600000 0.300000
v 1.000000 0.564706 -0.300000
v -0.800000 0.564706 -0.300000
vn -1.0000 -0.0000 -0.0000
vn -0.0000 -0.0000 -1.0000
vn 1.0000 -0.0000 -0.0000
vn -0.0000 -0.0000 1.0000
vn -0.0000 -1.0000 -0.0000
vn -0.0000 1.0000 -0.0000
vt 0.375000 0.000000
vt 0.625000 0.000000
vt 0.625000 0.250000
vt 0.375000 0.250000
vt 0.625000 0.500000
vt 0.375000 0.500000
vt 0.625000 0.750000
vt 0.375000 0.750000
vt 0.625000 1.000000
vt 0.375000 1.000000
vt 0.125000 0.500000
vt 0.125000 0.750000
vt 0.625000 0.475000
vt 0.625000 0.275000
vt 0.625000 0.775000
vt 0.625000 0.975000
vt 0.650000 0.500000
vt 0.650000 0.750000
vt 0.850000 0.750000
vt 0.850000 0.500000
s 0
f 2/1/1 4/2/1 10/3/1 7/4/1
f 7/4/2 10/3/2 20/5/2 16/6/2
f 14/7/3 11/8/3 16/6/3 20/5/3
f 11/8/4 14/7/4 4/9/4 2/10/4
f 7/11/5 16/6/5 11/8/5 2/12/5
f 3/1/1 5/2/1 9/3/1 8/4/1
f 8/4/2 9/3/2 19/5/2 17/6/2
f 17/6/3 19/5/3 15/7/3 12/8/3
f 12/8/4 15/7/4 5/9/4 3/10/4
f 8/11/5 17/6/5 12/8/5 3/12/5
f 1/1/3 6/4/3 15/3/3 19/2/3
f 15/3/4 6/4/4 18/6/4 4/5/4 14/13/4 5/14/4
f 18/6/1 13/8/1 10/7/1 4/5/1
f 20/15/2 10/7/2 13/8/2 1/10/2 19/9/2 9/16/2
f 6/11/6 1/12/6 13/8/6 18/6/6
f 14/17/5 20/18/5 9/19/5 5/20/5
