# Blender 4.2.3 LTS
# www.blender.org
mtllib convex_corner_wall.mtl
o convex_corner_wall
v 2.000021 4.000000 2.000000
v 1.999979 0.000000 2.000000
v 2.000021 4.000000 -2.000000
v 1.999979 0.000000 -2.000000
v -2.000000 -0.000000 2.000000
v 2.000000 0.000000 2.000000
v -2.000000 4.000000 2.000000
v 2.000000 4.000000 2.000000
vn 1.0000 -0.0000 -0.0000
vn -0.0000 -0.0000 1.0000
vt 0.000000 0.000000
vt 1.000000 0.000000
vt 1.000000 1.000000
vt 0.000000 1.000000
s 0
usemtl Material.002
f 1/1/1 2/2/1 4/3/1 3/4/1
usemtl Material.003
f 5/1/2 6/2/2 8/3/2 7/4/2
