# Blender 4.3.0
# www.blender.org
mtllib half_stairs_lower.mtl
o Cube.003
v 2.000000 0.000000 2.000000
v 2.000000 0.100000 2.000000
v -2.000000 0.000000 2.000000
v -2.000000 0.100000 2.000000
v 2.000000 0.100000 1.800000
v -2.000000 0.100000 1.800000
v 2.000000 0.100000 1.800000
v 2.000000 0.200000 1.800000
v -2.000000 0.100000 1.800000
v -2.000000 0.200000 1.800000
v 2.000000 0.200000 1.600000
v -2.000000 0.200000 1.600000
v 2.000000 0.200000 1.600000
v 2.000000 0.300000 1.600000
v -2.000000 0.200000 1.600000
v -2.000000 0.300000 1.600000
v 2.000000 0.300000 1.400000
v -2.000000 0.300000 1.400000
v 2.000000 0.300000 1.400000
v 2.000000 0.400000 1.400000
v -2.000000 0.300000 1.400000
v -2.000000 0.400000 1.400000
v 2.000000 0.400000 1.200000
v -2.000000 0.400000 1.200000
v 2.000000 0.400000 1.200000
v 2.000000 0.500000 1.200000
v -2.000000 0.400000 1.200000
v -2.000000 0.500000 1.200000
v 2.000000 0.500000 1.000000
v -2.000000 0.500000 1.000000
v 2.000000 0.500000 1.000000
v 2.000000 0.600000 1.000000
v -2.000000 0.500000 1.000000
v -2.000000 0.600000 1.000000
v 2.000000 0.600000 0.800000
v -2.000000 0.600000 0.800000
v 2.000000 0.600000 0.800000
v 2.000000 0.700000 0.800000
v -2.000000 0.600000 0.800000
v -2.000000 0.700000 0.800000
v 2.000000 0.700000 0.600000
v -2.000000 0.700000 0.600000
v 2.000000 0.700000 0.600000
v 2.000000 0.800000 0.600000
v -2.000000 0.700000 0.600000
v -2.000000 0.800000 0.600000
v 2.000000 0.800000 0.400000
v -2.000000 0.800000 0.400000
v 2.000000 0.800000 0.400000
v 2.000000 0.900000 0.400000
v -2.000000 0.800000 0.400000
v -2.000000 0.900000 0.400000
v 2.000000 0.900000 0.200000
v -2.000000 0.900000 0.200000
v 2.000000 0.900000 0.200000
v 2.000000 1.000000 0.200000
v -2.000000 0.900000 0.200000
v -2.000000 1.000000 0.200000
v 2.000000 1.000000 -0.000000
v -2.000000 1.000000 -0.000000
v 2.000000 1.000000 -0.000000
v 2.000000 1.100000 -0.000000
v -2.000000 1.000000 -0.000000
v -2.000000 1.100000 -0.000000
v 2.000000 1.100000 -0.200000
v -2.000000 1.100000 -0.200000
v 2.000000 1.100000 -0.200000
v 2.000000 1.200000 -0.200000
v -2.000000 1.100000 -0.200000
v -2.000000 1.200000 -0.200000
v 2.000000 1.200000 -0.400000
v -2.000000 1.200000 -0.400000
v 2.000000 1.200000 -0.400001
v 2.000000 1.300000 -0.400001
v -2.000000 1.200000 -0.400000
v -2.000000 1.300000 -0.400000
v 2.000000 1.300000 -0.600000
v -2.000000 1.300000 -0.600000
v 2.000000 1.300000 -0.600001
v 2.000000 1.400000 -0.600001
v -2.000000 1.300000 -0.600000
v -2.000000 1.400000 -0.600000
v 2.000000 1.400000 -0.800000
v -2.000000 1.400000 -0.800000
v 2.000000 1.400000 -0.800001
v 2.000000 1.500000 -0.800001
v -2.000000 1.400000 -0.800000
v -2.000000 1.500000 -0.800000
v 2.000000 1.500000 -1.000000
v -2.000000 1.500000 -1.000000
v 2.000000 1.500000 -1.000001
v 2.000000 1.600000 -1.000001
v -2.000000 1.500000 -1.000000
v -2.000000 1.600000 -1.000000
v 2.000000 1.600000 -1.200001
v -2.000000 1.600000 -1.200000
v 2.000000 1.600000 -1.200001
v 2.000000 1.700000 -1.200001
v -2.000000 1.600000 -1.200001
v -2.000000 1.700000 -1.200001
v 2.000000 1.700000 -1.400001
v -2.000000 1.700000 -1.400000
v 2.000000 1.700000 -1.400001
v 2.000000 1.800000 -1.400001
v -2.000000 1.700000 -1.400001
v -2.000000 1.800000 -1.400001
v 2.000000 1.800000 -1.600001
v -2.000000 1.800000 -1.600000
v 2.000000 1.800000 -1.600001
v 2.000000 1.900000 -1.600001
v -2.000000 1.800000 -1.600001
v -2.000000 1.900000 -1.600001
v 2.000000 1.900000 -1.800001
v -2.000000 1.900000 -1.800000
v 2.000000 1.900000 -1.800001
v 2.000000 2.000000 -1.800001
v -2.000000 1.900000 -1.800001
v -2.000000 2.000000 -1.800001
v 2.000000 2.000000 -2.000000
v -2.000000 2.000000 -2.000000
vn -0.0000 -0.0000 1.0000
vn -0.0000 1.0000 -0.0000
vt 0.375000 0.000000
vt 0.625000 0.000000
vt 0.625000 0.250000
vt 0.375000 0.250000
vt 0.625000 0.500000
vt 0.875000 0.500000
vt 0.875000 0.750000
vt 0.625000 0.750000
s 0
f 1/1/1 2/2/1 4/3/1 3/4/1
f 6/5/2 4/6/2 2/7/2 5/8/2
f 7/1/1 8/2/1 10/3/1 9/4/1
f 12/5/2 10/6/2 8/7/2 11/8/2
f 13/1/1 14/2/1 16/3/1 15/4/1
f 18/5/2 16/6/2 14/7/2 17/8/2
f 19/1/1 20/2/1 22/3/1 21/4/1
f 24/5/2 22/6/2 20/7/2 23/8/2
f 25/1/1 26/2/1 28/3/1 27/4/1
f 30/5/2 28/6/2 26/7/2 29/8/2
f 31/1/1 32/2/1 34/3/1 33/4/1
f 36/5/2 34/6/2 32/7/2 35/8/2
f 37/1/1 38/2/1 40/3/1 39/4/1
f 42/5/2 40/6/2 38/7/2 41/8/2
f 43/1/1 44/2/1 46/3/1 45/4/1
f 48/5/2 46/6/2 44/7/2 47/8/2
f 49/1/1 50/2/1 52/3/1 51/4/1
f 54/5/2 52/6/2 50/7/2 53/8/2
f 55/1/1 56/2/1 58/3/1 57/4/1
f 60/5/2 58/6/2 56/7/2 59/8/2
f 61/1/1 62/2/1 64/3/1 63/4/1
f 66/5/2 64/6/2 62/7/2 65/8/2
f 67/1/1 68/2/1 70/3/1 69/4/1
f 72/5/2 70/6/2 68/7/2 71/8/2
f 73/1/1 74/2/1 76/3/1 75/4/1
f 78/5/2 76/6/2 74/7/2 77/8/2
f 79/1/1 80/2/1 82/3/1 81/4/1
f 84/5/2 82/6/2 80/7/2 83/8/2
f 85/1/1 86/2/1 88/3/1 87/4/1
f 90/5/2 88/6/2 86/7/2 89/8/2
f 91/1/1 92/2/1 94/3/1 93/4/1
f 96/5/2 94/6/2 92/7/2 95/8/2
f 97/1/1 98/2/1 100/3/1 99/4/1
f 102/5/2 100/6/2 98/7/2 101/8/2
f 103/1/1 104/2/1 106/3/1 105/4/1
f 108/5/2 106/6/2 104/7/2 107/8/2
f 109/1/1 110/2/1 112/3/1 111/4/1
f 114/5/2 112/6/2 110/7/2 113/8/2
f 115/1/1 116/2/1 118/3/1 117/4/1
f 120/5/2 118/6/2 116/7/2 119/8/2
