# Blender 4.2.3 LTS
# www.blender.org
mtllib internal_hall.mtl
o internal_hall.002
v -2.000000 0.000000 2.000000
v -2.000000 4.000000 2.000000
v -2.000000 0.000000 -2.000000
v -2.000000 4.000000 -2.000000
v 2.000000 0.000000 2.000000
v 2.000000 4.000000 2.000000
v 2.000000 0.000000 -2.000000
v 2.000000 4.000000 -2.000000
v 1.000000 3.000000 -2.000000
v -1.000000 3.000000 -2.000000
v -1.000000 0.000000 -2.000000
v 1.000000 0.000000 -2.000000
v -1.000000 3.000000 2.000000
v 1.000000 3.000000 2.000000
v -1.000000 0.000000 2.000000
v 1.000000 0.000000 2.000000
v 2.000000 2.999947 -2.000000
v -2.000000 3.000496 -2.000000
v -2.000000 2.999279 2.000000
v 2.000000 3.000900 2.000000
vn -1.0000 -0.0000 -0.0000
vn -0.0000 -0.0000 -1.0000
vn 1.0000 -0.0000 -0.0000
vn -0.0000 -0.0000 1.0000
vn -0.0000 -1.0000 -0.0000
vn -0.0000 1.0000 -0.0000
vt 0.375000 0.000000
vt 0.562455 0.000000
vt 0.625000 0.000000
vt 0.625000 0.250000
vt 0.562531 0.250000
vt 0.375000 0.250000
vt 0.562500 0.312500
vt 0.375000 0.312500
vt 0.375000 0.500000
vt 0.562497 0.500000
vt 0.625000 0.500000
vt 0.625000 0.750000
vt 0.562556 0.750000
vt 0.375000 0.750000
vt 0.375000 0.812500
vt 0.562500 0.812500
vt 0.312500 0.750000
vt 0.312500 0.500000
vt 0.125000 0.750000
vt 0.125000 0.500000
vt 0.187500 0.500000
vt 0.187500 0.750000
vt 0.875000 0.500000
vt 0.875000 0.750000
vt 0.375000 0.199453
vt 0.625000 0.199453
vt 0.625000 0.050547
vt 0.375000 0.050547
vt 0.625000 0.699453
vt 0.625000 0.550547
vt 0.375000 0.550547
vt 0.375000 0.699453
vt 0.875000 0.550547
vt 0.875000 0.699453
vt 0.562500 0.437500
vt 0.375000 0.437500
vt 0.562500 0.937500
vt 0.562455 1.000000
vt 0.375000 1.000000
vt 0.375000 0.937500
vt 0.625000 1.000000
s 0
usemtl Material.011
f 1/1/1 19/2/1 2/3/1 4/4/1 18/5/1 3/6/1
f 3/6/2 18/5/2 10/7/2 11/8/2
f 7/9/3 17/10/3 8/11/3 6/12/3 20/13/3 5/14/3
f 16/15/4 5/14/4 20/13/4 14/16/4
f 7/9/5 5/14/5 16/17/5 12/18/5
f 1/19/5 3/20/5 11/21/5 15/22/5
f 8/11/6 4/23/6 2/24/6 6/12/6
f 11/25/3 10/26/3 13/27/3 15/28/3
f 14/29/1 9/30/1 12/31/1 16/32/1
f 10/33/5 9/30/5 14/29/5 13/34/5
f 9/35/2 17/10/2 7/9/2 12/36/2
f 10/7/2 18/5/2 4/4/2 8/11/2 17/10/2 9/35/2
f 13/37/4 19/38/4 1/39/4 15/40/4
f 14/16/4 20/13/4 6/12/4 2/41/4 19/38/4 13/37/4
