# Blender 4.3.0
# www.blender.org
mtllib internal_hall_stairs_turn.mtl
o Cube.008
v -2.000000 0.000000 2.000000
v -2.000000 4.000000 2.000000
v -2.000000 0.000000 -2.000000
v -2.000000 4.000000 -2.000000
v 2.000000 0.000000 2.000000
v 2.000000 4.000000 2.000000
v 2.000000 0.000000 -2.000000
v 2.000000 4.000000 -2.000000
v 2.000000 2.792635 -1.471178
v -1.471178 2.792635 -2.000000
v -1.500000 2.500000 -2.000000
v 2.000000 2.500000 -1.500000
v 2.000000 3.333355 -1.247204
v -1.247204 3.333355 -2.000000
v -0.833355 3.747204 -2.000000
v 2.000000 3.747204 -0.833355
v -1.060660 3.560660 -2.000000
v 2.000000 3.560660 -1.060660
v 2.000000 3.074025 -1.385819
v -1.385819 3.074025 -2.000000
v 2.000000 3.971178 -0.292636
v -0.292636 3.971178 -2.000000
v 2.000000 3.971178 0.292636
v 0.292636 3.971178 -2.000000
v 2.000000 4.000000 0.000000
v 0.000000 4.000000 -2.000000
v 0.833355 3.747204 -2.000000
v 2.000000 3.747204 0.833355
v 1.247204 3.333355 -2.000000
v 2.000000 3.333355 1.247204
v 2.000000 3.560660 1.060660
v 1.060660 3.560660 -2.000000
v 0.574025 3.885819 -2.000000
v 2.000000 3.885819 0.574025
v -0.574025 3.885819 -2.000000
v 2.000000 3.885819 -0.574025
v -1.500000 0.000000 -2.000000
v 2.000000 0.000000 -1.500000
v 1.471178 2.792635 -2.000000
v 2.000000 2.792635 1.471178
v 1.500000 2.500000 -2.000000
v 2.000000 2.500000 1.500000
v 1.500000 0.000000 -2.000000
v 2.000000 0.000000 1.500000
v 2.000000 3.074025 1.385819
v 1.385819 3.074025 -2.000000
v -1.247204 3.333355 2.000000
v -2.000000 3.333355 -1.247204
v -2.000000 3.747204 -0.833355
v -0.833355 3.747204 2.000000
v -2.000000 3.560660 -1.060660
v -1.060660 3.560660 2.000000
v -2.000000 3.971178 -0.292636
v -0.292636 3.971178 2.000000
v 0.292636 3.971178 2.000000
v -2.000000 3.971178 0.292636
v -2.000000 4.000000 0.000000
v 0.000000 4.000000 2.000000
v -2.000000 3.885819 -0.574025
v -0.574025 3.885819 2.000000
v 0.833355 3.747204 2.000000
v -2.000000 3.747204 0.833355
v 1.247204 3.333355 2.000000
v -2.000000 3.333355 1.247204
v 1.060660 3.560660 2.000000
v -2.000000 3.560660 1.060660
v 1.471178 2.792635 2.000000
v -2.000000 2.792635 1.471178
v 1.500000 2.500000 2.000000
v -2.000000 2.500000 1.500000
v 1.385819 3.074025 2.000000
v -2.000000 3.074025 1.385819
v 0.574025 3.885819 2.000000
v -2.000000 3.885819 0.574025
v -1.500000 0.000000 2.000000
v -2.000000 0.000000 -1.500000
v -1.500000 2.500000 2.000000
v -2.000000 2.500000 -1.500000
v -1.471178 2.792635 2.000000
v -2.000000 2.792635 -1.471178
v -1.385819 3.074025 2.000000
v -2.000000 3.074025 -1.385819
v 1.500000 0.000000 2.000000
v -2.000000 0.000000 1.500000
v 1.060660 3.560660 -1.060660
v 1.060660 3.560660 1.060660
v 1.247204 3.333355 1.247204
v 1.247204 3.333355 -1.247204
v -1.247204 3.333355 1.247204
v -1.247204 3.333355 -1.247204
v -1.060660 3.560660 -1.060660
v -1.060660 3.560660 1.060660
v -1.500000 2.500000 1.500000
v -1.500000 2.500000 -1.500000
v -1.500000 0.000000 -1.500000
v -1.500000 0.000000 1.500000
v -1.500000 0.000000 1.937500
v 0.833355 3.747204 0.833355
v 0.833355 3.747204 -0.833355
v -1.385819 3.074025 1.385819
v -1.385819 3.074025 -1.385819
v 0.574025 3.885819 0.574025
v 0.574025 3.885819 -0.574025
v -1.471178 2.792635 1.471178
v -1.471178 2.792635 -1.471178
v 0.292636 3.971178 0.292636
v 0.292636 3.971178 -0.292636
v -0.292636 3.971178 0.292636
v -0.292636 3.971178 -0.292636
v 0.000000 4.000000 0.000000
v 1.471178 2.792635 -1.471178
v 1.471178 2.792635 1.471178
v 1.500000 2.500000 1.500000
v 1.500000 2.500000 -1.500000
v -0.574025 3.885819 0.574025
v -0.574025 3.885819 -0.574025
v 1.385819 3.074025 -1.385819
v 1.385819 3.074025 1.385819
v -0.833355 3.747204 0.833355
v -0.833355 3.747204 -0.833355
v 1.500000 0.000000 -1.937500
v 1.500000 0.000000 -1.500000
v 1.500000 0.000000 1.500000
v -1.937500 0.000000 -1.500000
v 1.000000 4.000000 0.000000
v 1.937500 0.000000 1.500000
v -1.938462 0.000000 -1.507692
v -1.507692 0.000000 1.938462
v 1.938462 0.000000 1.507692
v 1.507692 0.000000 -1.938462
v -0.400000 4.000000 -1.200000
v -1.210380 3.378227 1.210380
v -1.500000 0.312500 -1.500000
v -1.272418 3.286184 -1.272418
v -0.157867 3.984451 0.157867
v -1.496371 2.536845 1.496371
v -1.459647 2.830648 1.459647
v -1.500000 2.187500 1.500000
v -0.400000 4.000000 -1.200000
v -0.666667 4.000000 -0.666667
v -0.205093 3.979800 0.803396
v -1.500000 2.222222 1.555556
v -1.944444 0.000000 -1.555556
v -1.508772 0.000000 1.929825
v -1.461211 2.825493 1.532927
v -1.217658 3.369358 1.366440
v -1.496798 2.532515 1.555556
v 1.102515 3.509660 -1.102515
v -1.500000 0.000000 -1.562500
v -1.272418 3.286184 -1.272418
v 0.136343 3.986571 -0.136343
v 1.500000 0.312500 -1.500000
v 1.272418 3.286184 -1.272418
v 1.200000 3.994236 -0.058527
v 1.366440 3.292280 -1.269160
v 1.555556 0.277778 -1.500000
v -1.555556 0.000000 -1.555556
v -1.938462 0.000000 -1.507692
v -1.750000 0.000000 -1.531250
v 1.239299 3.517432 -1.096136
v -2.000000 8.000000 -2.000000
v -2.000000 8.000000 0.000000
v -2.000000 8.000000 2.000000
v 2.000000 8.000000 -2.000000
v 2.000000 8.000000 0.000000
v 2.000000 8.000000 2.000000
v -0.000000 8.000000 2.000000
v -0.000000 8.000000 0.000000
v -0.000000 8.000000 -2.000000
v -0.000000 8.000000 -1.000000
v -0.400000 8.000000 -1.200000
v -0.666667 8.000000 -0.666667
v -0.400000 8.000000 -1.200000
v 1.000000 8.000000 0.000000
v -2.000000 -4.000000 2.000000
v -2.000000 0.000000 2.000000
v -2.000000 -4.000000 -2.000000
v -2.000000 0.000000 -2.000000
v 2.000000 -4.000000 2.000000
v 2.000000 0.000000 2.000000
v 2.000000 -4.000000 -2.000000
v 2.000000 0.000000 -2.000000
vn -1.0000 -0.0000 -0.0000
vn -0.0000 -0.0000 -1.0000
vn 1.0000 -0.0000 -0.0000
vn -0.0000 -0.0000 1.0000
vn -0.0000 -1.0000 -0.0000
vn -0.0000 1.0000 -0.0000
vn -0.7730 -0.6344 -0.0000
vn 0.7730 -0.6344 -0.0000
vn -0.6344 -0.7730 -0.0000
vn 0.8819 -0.4714 -0.0000
vn -0.4714 -0.8819 -0.0000
vn 0.9569 -0.2903 -0.0000
vn -0.2903 -0.9569 -0.0000
vn 0.9952 -0.0980 -0.0000
vn 0.0980 -0.9952 -0.0000
vn -0.0980 -0.9952 -0.0000
vn -0.9952 -0.0980 -0.0000
vn 0.2903 -0.9569 -0.0000
vn -0.9569 -0.2903 -0.0000
vn 0.4714 -0.8819 -0.0000
vn -0.8819 -0.4714 -0.0000
vn 0.6344 -0.7730 -0.0000
vn -0.0000 -0.6344 -0.7730
vn -0.0000 -0.6344 0.7730
vn -0.0000 -0.7730 -0.6344
vn -0.0000 -0.4714 0.8819
vn -0.0000 -0.8819 -0.4714
vn -0.0000 -0.2903 0.9569
vn -0.0000 -0.9569 -0.2903
vn -0.0000 -0.0980 0.9952
vn -0.0000 -0.9952 0.0980
vn -0.0000 -0.9952 -0.0980
vn -0.0000 -0.0980 -0.9952
vn -0.0000 -0.9569 0.2903
vn -0.0000 -0.2903 -0.9569
vn -0.0000 -0.8819 0.4714
vn -0.0000 -0.4714 -0.8819
vn -0.0000 -0.7730 0.6344
vn -0.8944 -0.0000 -0.4472
vn 0.8944 -0.0000 0.4472
vt 0.625000 0.000000
vt 0.531250 0.031250
vt 0.375000 0.000000
vt 0.549540 0.033051
vt 0.567127 0.038386
vt 0.583335 0.047050
vt 0.597541 0.058709
vt 0.609200 0.072915
vt 0.617864 0.089123
vt 0.623199 0.106710
vt 0.583335 0.202950
vt 0.625000 0.250000
vt 0.567127 0.211614
vt 0.597541 0.191291
vt 0.609200 0.177085
vt 0.617864 0.160877
vt 0.623199 0.143290
vt 0.625000 0.125000
vt 0.375000 0.031250
vt 0.375000 0.250000
vt 0.375000 0.218750
vt 0.531250 0.218750
vt 0.549540 0.216949
vt 0.597541 0.441291
vt 0.625000 0.500000
vt 0.583335 0.452950
vt 0.567127 0.288386
vt 0.583335 0.297050
vt 0.583335 0.702950
vt 0.625000 0.750000
vt 0.567127 0.711614
vt 0.597541 0.691291
vt 0.609200 0.677085
vt 0.617864 0.660877
vt 0.623199 0.643290
vt 0.375000 0.500000
vt 0.531250 0.531250
vt 0.549540 0.533051
vt 0.567127 0.538386
vt 0.583335 0.547050
vt 0.597541 0.558709
vt 0.609200 0.572915
vt 0.617864 0.589123
vt 0.623199 0.606710
vt 0.625000 0.625000
vt 0.375000 0.750000
vt 0.375000 0.718750
vt 0.531250 0.718750
vt 0.549540 0.716949
vt 0.375000 0.531250
vt 0.625000 1.000000
vt 0.583335 0.952950
vt 0.597541 0.941291
vt 0.567127 0.788386
vt 0.583335 0.797050
vt 0.371094 0.718750
vt 0.371154 0.719231
vt 0.344231 0.503846
vt 0.343750 0.503906
vt 0.343750 0.500000
vt 0.125000 0.531250
vt 0.128846 0.530769
vt 0.128906 0.531250
vt 0.156250 0.718750
vt 0.156250 0.746094
vt 0.155769 0.746154
vt 0.155702 0.745614
vt 0.156250 0.531250
vt 0.152778 0.527778
vt 0.156250 0.527344
vt 0.140625 0.529297
vt 0.128472 0.527778
vt 0.156250 0.750000
vt 0.625000 0.875000
vt 0.775000 0.550000
vt 0.791667 0.583333
vt 0.625000 0.375000
vt 0.000000 0.000000
vt 0.623199 0.893290
vt 0.375000 1.000000
vt 0.531250 0.968750
vt 0.375000 0.968750
vt 0.617864 0.910877
vt 0.609200 0.927085
vt 0.549540 0.966949
vt 0.567127 0.961614
vt 0.531250 0.781250
vt 0.375000 0.781250
vt 0.623199 0.856710
vt 0.617864 0.839123
vt 0.549540 0.783051
vt 0.609200 0.822915
vt 0.597541 0.808709
vt 0.531250 0.281250
vt 0.375000 0.281250
vt 0.623199 0.356710
vt 0.617864 0.339123
vt 0.549540 0.283051
vt 0.609200 0.322915
vt 0.597541 0.308709
vt 0.623199 0.393290
vt 0.531250 0.468750
vt 0.375000 0.468750
vt 0.617864 0.410877
vt 0.609200 0.427085
vt 0.549540 0.466949
vt 0.567127 0.461614
vt 0.469204 0.556893
vt 0.357192 0.511997
vt 0.266007 0.381293
vt 0.567127 0.000000
vt 0.549540 0.000000
vt 0.531250 0.000000
vt 0.583335 0.000000
vt 0.597541 0.000000
vt 0.609200 0.000000
vt 0.617864 0.000000
vt 0.623199 0.000000
vt 0.468980 0.518546
vt 0.875000 0.625000
vt 0.875000 0.750000
vt 0.750000 0.750000
vt 0.750000 0.625000
vt 0.750000 0.562500
vt 0.750000 0.500000
vt 0.875000 0.500000
vt 0.687500 0.625000
vt 0.125000 0.500000
vt 0.125000 0.750000
s 0
f 2/1/1 70/2/1 1/3/1
f 70/2/1 2/1/1 68/4/1
f 2/1/1 72/5/1 68/4/1
f 72/5/1 2/1/1 64/6/1
f 64/6/1 2/1/1 66/7/1
f 66/7/1 2/1/1 62/8/1
f 62/8/1 2/1/1 74/9/1
f 74/9/1 2/1/1 56/10/1
f 48/11/1 4/12/1 82/13/1
f 51/14/1 4/12/1 48/11/1
f 49/15/1 4/12/1 51/14/1
f 49/15/1 59/16/1 4/12/1
f 53/17/1 4/12/1 59/16/1
f 57/18/1 4/12/1 53/17/1
f 56/10/1 2/1/1 57/18/1
f 1/3/1 70/2/1 84/19/1
f 3/20/1 76/21/1 78/22/1
f 78/22/1 4/12/1 3/20/1
f 78/22/1 80/23/1 4/12/1
f 80/23/1 82/13/1 4/12/1
f 32/24/2 8/25/2 29/26/2
f 20/27/2 4/12/2 14/28/2
f 30/29/3 6/30/3 45/31/3
f 30/29/3 31/32/3 6/30/3
f 31/32/3 28/33/3 6/30/3
f 28/33/3 34/34/3 6/30/3
f 34/34/3 23/35/3 6/30/3
f 7/36/3 8/25/3 12/37/3
f 12/37/3 8/25/3 9/38/3
f 19/39/3 9/38/3 8/25/3
f 13/40/3 19/39/3 8/25/3
f 13/40/3 8/25/3 18/41/3
f 16/42/3 18/41/3 8/25/3
f 36/43/3 16/42/3 8/25/3
f 21/44/3 36/43/3 8/25/3
f 25/45/3 21/44/3 8/25/3
f 6/30/3 23/35/3 25/45/3
f 5/46/3 44/47/3 42/48/3
f 6/30/3 5/46/3 42/48/3
f 42/48/3 40/49/3 6/30/3
f 40/49/3 45/31/3 6/30/3
f 12/37/3 38/50/3 7/36/3
f 2/51/4 47/52/4 52/53/4
f 71/54/4 6/30/4 63/55/4
f 126/56/5 44/47/5 129/57/5
f 130/58/5 121/59/5 43/60/5
f 76/61/5 127/62/5 158/62/5 124/63/5
f 96/64/5 97/65/5 128/66/5 144/67/5
f 95/68/5 157/69/5 149/70/5
f 158/62/6 127/62/6 159/71/6
f 143/72/5 127/62/5 76/61/5
f 128/66/5 97/65/5 75/73/5
f 2/51/4 58/74/4 167/74/4 163/51/4
f 139/75/6 131/75/6 140/76/6
f 8/25/2 26/77/2 169/77/2 164/25/2
f 6/30/3 25/45/3 165/45/3 166/30/3
f 65/78/7 86/78/7 87/78/7 63/78/7
f 146/78/8 132/78/8 92/78/8 52/78/8 47/78/8 89/78/8
f 89/78/8 132/78/8 146/78/8
f 142/78/3 93/78/3 77/78/3 75/78/3 97/78/3 96/78/3 138/78/3
f 138/78/3 93/78/3 142/78/3
f 65/78/9 61/78/9 98/78/9 86/78/9
f 150/78/6 134/78/6 101/78/6
f 90/78/6 134/78/6 150/78/6
f 47/78/10 81/78/10 100/78/10 89/78/10
f 61/78/11 73/78/11 102/78/11 98/78/11
f 145/78/12 137/78/12 100/78/12 81/78/12 79/78/12 104/78/12
f 104/78/12 137/78/12 145/78/12
f 73/78/13 55/78/13 106/78/13 102/78/13
f 93/78/14 136/78/14 147/78/14
f 147/78/14 136/78/14 104/78/14 79/78/14 77/78/14 93/78/14
f 135/78/15 110/78/15 58/78/15 54/78/15 108/78/15 141/78/15
f 135/78/15 141/78/15 108/78/15
f 55/78/16 58/78/16 110/78/16 106/78/16
f 113/78/17 69/78/17 67/78/17 112/78/17
f 108/78/18 54/78/18 60/78/18 115/78/18
f 112/78/19 67/78/19 71/78/19 118/78/19
f 115/78/20 60/78/20 50/78/20 119/78/20
f 69/78/1 113/78/1 123/78/1 83/78/1
f 63/78/21 87/78/21 118/78/21 71/78/21
f 119/78/22 50/78/22 52/78/22 92/78/22
f 54/79/4 58/74/4 2/51/4
f 2/51/4 1/80/4 77/81/4
f 1/80/4 75/82/4 77/81/4
f 60/83/4 54/79/4 2/51/4
f 50/84/4 60/83/4 2/51/4
f 77/81/4 79/85/4 2/51/4
f 79/85/4 81/86/4 2/51/4
f 52/53/4 50/84/4 2/51/4
f 81/86/4 47/52/4 2/51/4
f 5/46/4 69/87/4 83/88/4
f 5/46/4 6/30/4 69/87/4
f 55/89/4 6/30/4 58/74/4
f 55/89/4 73/90/4 6/30/4
f 69/87/4 6/30/4 67/91/4
f 73/90/4 61/92/4 6/30/4
f 61/92/4 65/93/4 6/30/4
f 71/54/4 67/91/4 6/30/4
f 65/93/4 63/55/4 6/30/4
f 3/20/2 11/94/2 37/95/2
f 4/12/2 11/94/2 3/20/2
f 4/12/2 26/77/2 22/96/2
f 35/97/2 4/12/2 22/96/2
f 11/94/2 4/12/2 10/98/2
f 15/99/2 4/12/2 35/97/2
f 17/100/2 4/12/2 15/99/2
f 4/12/2 20/27/2 10/98/2
f 14/28/2 4/12/2 17/100/2
f 26/77/2 8/25/2 24/101/2
f 7/36/2 41/102/2 8/25/2
f 41/102/2 7/36/2 43/103/2
f 24/101/2 8/25/2 33/104/2
f 33/104/2 8/25/2 27/105/2
f 41/102/2 39/106/2 8/25/2
f 46/107/2 8/25/2 39/106/2
f 27/105/2 8/25/2 32/24/2
f 29/26/2 8/25/2 46/107/2
f 86/78/23 31/78/23 30/78/23 87/78/23
f 88/78/24 13/78/24 18/78/24 85/78/24 160/78/24 148/78/24
f 85/78/24 148/78/24 160/78/24
f 152/78/4 122/78/4 156/78/4
f 122/78/4 38/78/4 12/78/4 114/78/4 152/78/4 156/78/4
f 98/78/25 28/78/25 31/78/25 86/78/25
f 117/78/26 19/78/26 13/78/26 88/78/26 155/78/26 153/78/26
f 88/78/26 153/78/26 155/78/26
f 102/78/27 34/78/27 28/78/27 98/78/27
f 111/78/28 9/78/28 19/78/28 117/78/28
f 106/78/29 23/78/29 34/78/29 102/78/29
f 114/78/30 12/78/30 9/78/30 111/78/30
f 107/78/31 21/78/31 25/78/31 125/78/31 154/78/31 151/78/31
f 125/78/31 110/78/31 151/78/31 154/78/31
f 125/78/32 25/78/32 23/78/32 106/78/32 110/78/32
f 112/78/33 40/78/33 42/78/33 113/78/33
f 36/78/34 21/78/34 107/78/34 103/78/34
f 118/78/35 45/78/35 40/78/35 112/78/35
f 16/78/36 36/78/36 103/78/36 99/78/36
f 126/78/2 123/78/2 113/78/2 42/78/2 44/78/2
f 45/78/37 118/78/37 87/78/37 30/78/37
f 18/78/38 16/78/38 99/78/38 85/78/38
f 51/14/1 48/11/1 82/13/1 80/23/1 78/22/1 76/21/1 84/19/1 70/2/1 68/4/1 72/5/1 64/6/1 66/7/1 62/8/1 74/9/1 56/10/1 57/18/1 53/17/1 59/16/1 49/15/1
f 91/78/8 92/78/8 132/78/8 89/78/8 90/78/8
f 94/78/3 93/78/3 138/78/3 96/78/3 95/78/3 133/78/3
f 90/78/10 89/78/10 100/78/10 101/78/10 134/78/10
f 101/78/12 100/78/12 137/78/12 104/78/12 105/78/12
f 105/78/14 104/78/14 136/78/14 93/78/14 94/78/14
f 109/78/18 108/78/18 115/78/18 116/78/18
f 116/78/20 115/78/20 119/78/20 120/78/20
f 92/78/22 91/78/22 120/78/22 119/78/22
f 110/45/15 135/108/15 108/109/15 109/110/15
f 46/111/2 39/112/2 41/113/2 43/20/2 37/20/2 11/113/2 10/112/2 20/111/2 14/114/2 17/115/2 15/116/2 35/117/2 22/118/2 26/1/2 24/118/2 33/117/2 27/116/2 32/115/2 29/114/2
f 85/78/24 91/78/24 90/78/24 88/78/24 148/78/24
f 152/78/4 114/78/4 94/78/4 133/78/4 95/78/4 122/78/4
f 153/78/26 88/78/26 90/78/26 150/78/26 101/78/26 117/78/26
f 117/78/28 101/78/28 105/78/28 111/78/28
f 111/78/30 105/78/30 94/78/30 114/78/30
f 116/78/34 103/78/34 107/78/34 109/78/34
f 120/78/36 99/78/36 103/78/36 116/78/36
f 91/78/38 85/78/38 99/78/38 120/78/38
f 110/45/31 109/109/31 107/110/31 151/119/31
f 162/120/6 163/121/6 167/122/6 168/123/6 170/124/6 171/75/6 172/76/6 173/75/6 169/125/6 161/126/6
f 170/124/6 168/123/6 174/127/6 165/45/6 164/25/6 169/125/6 173/75/6 171/75/6
f 174/127/6 168/123/6 167/122/6 166/30/6 165/45/6
f 57/18/1 2/1/1 163/1/1 162/18/1
f 25/45/3 8/25/3 164/25/3 165/45/3
f 131/75/4 139/75/4 171/75/4 173/75/4
f 139/75/39 140/76/39 172/76/39 171/75/39
f 4/12/1 57/18/1 162/18/1 161/12/1
f 58/74/4 6/30/4 166/30/4 167/74/4
f 26/77/2 4/12/2 161/12/2 169/77/2
f 140/76/40 131/75/40 173/75/40 172/76/40
f 175/3/1 176/1/1 178/12/1 177/20/1
f 177/20/2 178/12/2 182/25/2 181/36/2
f 181/36/3 182/25/3 180/30/3 179/46/3
f 179/46/4 180/30/4 176/51/4 175/80/4
f 177/128/5 181/36/5 179/46/5 175/129/5
o Plane
v -2.000000 0.000000 2.000000
v 2.000000 0.000000 2.000000
v -2.000000 0.000000 -2.000000
v 2.000000 0.000000 -2.000000
vn -0.0000 1.0000 -0.0000
vt 0.000000 0.000000
vt 1.000000 0.000000
vt 1.000000 1.000000
vt 0.000000 1.000000
s 0
f 183/130/41 184/131/41 186/132/41 185/133/41
