# Blender 4.3.0
# www.blender.org
mtllib internal_hall_arch.mtl
o Cube.002
v -2.000000 0.000000 2.000000
v -2.000000 4.000000 2.000000
v -2.000000 0.000000 -2.000000
v -2.000000 4.000000 -2.000000
v 2.000000 0.000000 2.000000
v 2.000000 4.000000 2.000000
v 2.000000 0.000000 -2.000000
v 2.000000 4.000000 -2.000000
v -1.471178 2.792635 -2.000000
v -1.500000 2.500000 -2.000000
v -1.247204 3.333355 -2.000000
v -0.833355 3.747204 -2.000000
v -1.060660 3.560660 -2.000000
v -1.385819 3.074025 -2.000000
v -0.292636 3.971178 -2.000000
v 0.292636 3.971178 -2.000000
v 0.000000 4.000000 -2.000000
v 0.833355 3.747204 -2.000000
v 1.247204 3.333355 -2.000000
v 1.060660 3.560660 -2.000000
v 0.574025 3.885819 -2.000000
v -0.574025 3.885819 -2.000000
v -1.500000 0.000000 -2.000000
v 1.471178 2.792635 -2.000000
v 1.500000 2.500000 -2.000000
v 1.500000 0.000000 -2.000000
v 1.385819 3.074025 -2.000000
v -1.247204 3.333355 2.000000
v -0.833355 3.747204 2.000000
v -1.060660 3.560660 2.000000
v -0.292636 3.971178 2.000000
v 0.292636 3.971178 2.000000
v 0.000000 4.000000 2.000000
v -0.574025 3.885819 2.000000
v 0.833355 3.747204 2.000000
v 1.247204 3.333355 2.000000
v 1.060660 3.560660 2.000000
v 1.471178 2.792635 2.000000
v 1.500000 2.500000 2.000000
v 1.385819 3.074025 2.000000
v 0.574025 3.885819 2.000000
v -1.500000 0.000000 2.000000
v -1.500000 2.500000 2.000000
v -1.471178 2.792635 2.000000
v -1.385819 3.074025 2.000000
v 1.500000 0.000000 2.000000
vn -1.0000 -0.0000 -0.0000
vn -0.0000 -0.0000 -1.0000
vn 1.0000 -0.0000 -0.0000
vn -0.0000 -0.0000 1.0000
vn -0.0000 -1.0000 -0.0000
vn -0.0000 1.0000 -0.0000
vn -0.7730 -0.6344 -0.0000
vn 0.7730 -0.6344 -0.0000
vn -0.6344 -0.7730 -0.0000
vn 0.8819 -0.4714 -0.0000
vn -0.4714 -0.8819 -0.0000
vn 0.9569 -0.2903 -0.0000
vn -0.2903 -0.9569 -0.0000
vn 0.9952 -0.0980 -0.0000
vn 0.0980 -0.9952 -0.0000
vn -0.0980 -0.9952 -0.0000
vn -0.9952 -0.0980 -0.0000
vn 0.2903 -0.9569 -0.0000
vn -0.9569 -0.2903 -0.0000
vn 0.4714 -0.8819 -0.0000
vn -0.8819 -0.4714 -0.0000
vn 0.6344 -0.7730 -0.0000
vt 0.375000 0.000000
vt 0.625000 0.000000
vt 0.625000 0.250000
vt 0.375000 0.250000
vt 0.625000 0.500000
vt 0.583335 0.452950
vt 0.597541 0.441291
vt 0.583335 0.297050
vt 0.567127 0.288386
vt 0.375000 0.500000
vt 0.625000 0.750000
vt 0.375000 0.750000
vt 0.625000 1.000000
vt 0.583335 0.952950
vt 0.597541 0.941291
vt 0.583335 0.797050
vt 0.567127 0.788386
vt 0.343750 0.500000
vt 0.343750 0.750000
vt 0.156250 0.750000
vt 0.125000 0.750000
vt 0.125000 0.500000
vt 0.156250 0.500000
vt 0.750000 0.500000
vt 0.875000 0.500000
vt 0.875000 0.750000
vt 0.750000 0.750000
vt 0.000000 0.000000
vt 0.623199 0.893290
vt 0.625000 0.875000
vt 0.375000 1.000000
vt 0.531250 0.968750
vt 0.375000 0.968750
vt 0.617864 0.910877
vt 0.609200 0.927085
vt 0.549540 0.966949
vt 0.567127 0.961614
vt 0.375000 0.781250
vt 0.531250 0.781250
vt 0.623199 0.856710
vt 0.617864 0.839123
vt 0.549540 0.783051
vt 0.609200 0.822915
vt 0.597541 0.808709
vt 0.375000 0.281250
vt 0.531250 0.281250
vt 0.625000 0.375000
vt 0.623199 0.356710
vt 0.617864 0.339123
vt 0.549540 0.283051
vt 0.609200 0.322915
vt 0.597541 0.308709
vt 0.623199 0.393290
vt 0.531250 0.468750
vt 0.375000 0.468750
vt 0.617864 0.410877
vt 0.609200 0.427085
vt 0.549540 0.466949
vt 0.567127 0.461614
s 0
f 1/1/1 2/2/1 4/3/1 3/4/1
f 8/5/2 19/6/2 20/7/2
f 4/3/2 11/8/2 14/9/2
f 7/10/3 8/5/3 6/11/3 5/12/3
f 2/13/4 28/14/4 30/15/4
f 6/11/4 36/16/4 40/17/4
f 26/18/5 7/10/5 5/12/5 46/19/5
f 42/20/5 1/21/5 3/22/5 23/23/5
f 17/24/6 4/25/6 2/26/6 33/27/6
f 6/11/6 8/5/6 17/24/6 33/27/6
f 37/28/7 20/28/7 19/28/7 36/28/7
f 28/28/8 11/28/8 13/28/8 30/28/8
f 23/28/3 10/28/3 43/28/3 42/28/3
f 18/28/9 20/28/9 37/28/9 35/28/9
f 45/28/10 14/28/10 11/28/10 28/28/10
f 21/28/11 18/28/11 35/28/11 41/28/11
f 44/28/12 9/28/12 14/28/12 45/28/12
f 16/28/13 21/28/13 41/28/13 32/28/13
f 43/28/14 10/28/14 9/28/14 44/28/14
f 33/28/15 31/28/15 15/28/15 17/28/15
f 17/28/16 16/28/16 32/28/16 33/28/16
f 38/28/17 24/28/17 25/28/17 39/28/17
f 22/28/18 15/28/18 31/28/18 34/28/18
f 40/28/19 27/28/19 24/28/19 38/28/19
f 12/28/20 22/28/20 34/28/20 29/28/20
f 39/28/1 25/28/1 26/28/1 46/28/1
f 27/28/21 40/28/21 36/28/21 19/28/21
f 13/28/22 12/28/22 29/28/22 30/28/22
f 31/29/4 33/30/4 2/13/4
f 2/13/4 1/31/4 43/32/4
f 1/31/4 42/33/4 43/32/4
f 34/34/4 31/29/4 2/13/4
f 29/35/4 34/34/4 2/13/4
f 2/13/4 43/32/4 44/36/4
f 2/13/4 44/36/4 45/37/4
f 30/15/4 29/35/4 2/13/4
f 2/13/4 45/37/4 28/14/4
f 46/38/4 5/12/4 39/39/4
f 5/12/4 6/11/4 39/39/4
f 6/11/4 33/30/4 32/40/4
f 6/11/4 32/40/4 41/41/4
f 38/42/4 39/39/4 6/11/4
f 6/11/4 41/41/4 35/43/4
f 6/11/4 35/43/4 37/44/4
f 40/17/4 38/42/4 6/11/4
f 6/11/4 37/44/4 36/16/4
f 23/45/2 3/4/2 10/46/2
f 3/4/2 4/3/2 10/46/2
f 4/3/2 17/47/2 15/48/2
f 4/3/2 15/48/2 22/49/2
f 9/50/2 10/46/2 4/3/2
f 4/3/2 22/49/2 12/51/2
f 4/3/2 12/51/2 13/52/2
f 14/9/2 9/50/2 4/3/2
f 4/3/2 13/52/2 11/8/2
f 16/53/2 17/47/2 8/5/2
f 8/5/2 7/10/2 25/54/2
f 7/10/2 26/55/2 25/54/2
f 21/56/2 16/53/2 8/5/2
f 18/57/2 21/56/2 8/5/2
f 8/5/2 25/54/2 24/58/2
f 8/5/2 24/58/2 27/59/2
f 20/7/2 18/57/2 8/5/2
f 8/5/2 27/59/2 19/6/2
