# Blender 4.2.3 LTS
# www.blender.org
mtllib internal_hall_turn.mtl
o internal_hall_turn
v -2.000000 0.000000 2.000000
v -1.000000 0.000000 2.000000
v -2.000000 4.000000 2.000000
v -1.000000 3.000000 2.000000
v 2.000000 0.000000 -1.000000
v -2.000000 0.000000 -2.000000
v -1.000000 0.000000 -1.000000
v -1.000000 3.000000 -1.000000
v 2.000000 3.000000 -1.000000
v -2.000000 4.000000 -2.000000
v 2.000000 0.000000 2.000000
v -1.000000 0.000000 1.000000
v 1.000000 0.000000 2.000000
v 2.000000 4.000000 2.000000
v -1.000000 3.000000 1.000000
v 1.000000 3.000000 2.000000
v 2.000000 0.000000 -2.000000
v 1.000000 0.000000 -1.000000
v 2.000000 0.000000 1.000000
v 2.000000 3.000000 1.000000
v 2.000000 4.000000 -2.000000
v 1.000000 3.000000 -1.000000
v 1.000000 3.000000 1.000000
v -2.000000 3.000045 -2.000000
v 1.000000 0.000000 1.000000
v 2.000000 3.000824 -2.000000
v 2.000000 2.999559 2.000000
v -2.000000 3.000078 2.000000
v -2.000000 0.000000 0.999715
v -2.000000 0.000000 -0.999715
v -0.999115 0.000000 -2.000000
v 1.000279 0.000000 -2.000000
vn -1.0000 -0.0000 -0.0000
vn -0.0000 -0.0000 -1.0000
vn 1.0000 -0.0000 -0.0000
vn -0.0000 -0.0000 1.0000
vn -0.0000 -1.0000 -0.0000
vn -0.0000 1.0000 -0.0000
vt 0.375000 0.000000
vt 0.562505 0.000000
vt 0.625000 0.000000
vt 0.625000 0.250000
vt 0.562503 0.250000
vt 0.375000 0.250000
vt 0.375000 0.187482
vt 0.375000 0.062518
vt 0.562551 0.500000
vt 0.375000 0.500000
vt 0.375000 0.437517
vt 0.375000 0.312555
vt 0.625000 0.750000
vt 0.562472 0.750000
vt 0.562500 0.687500
vt 0.562500 0.562500
vt 0.625000 0.500000
vt 0.562500 0.812500
vt 0.375000 0.812500
vt 0.375000 0.750000
vt 0.312500 0.750000
vt 0.312500 0.687500
vt 0.187500 0.750000
vt 0.125000 0.750000
vt 0.125000 0.687482
vt 0.187500 0.687500
vt 0.875000 0.500000
vt 0.875000 0.750000
vt 0.375000 0.687500
vt 0.375000 0.083333
vt 0.625000 0.083333
vt 0.625000 0.666667
vt 0.375000 0.666667
vt 0.625000 0.583333
vt 0.875000 0.583333
vt 0.375000 0.562500
vt 0.875000 0.666667
vt 0.000000 0.000000
vt 0.625000 0.166667
vt 0.375000 0.166667
vt 0.375000 0.583333
vt 0.625000 1.000000
vt 0.562505 1.000000
vt 0.562500 0.937500
vt 0.375000 1.000000
vt 0.375000 0.937500
vt 0.125000 0.562518
vt 0.187500 0.562500
vt 0.125000 0.500000
vt 0.187555 0.500000
vt 0.312517 0.500000
vt 0.312500 0.562500
s 0
usemtl Material.010
f 1/1/1 28/2/1 3/3/1 10/4/1 24/5/1 6/6/1 30/7/1 29/8/1
f 6/6/2 24/5/2 26/9/2 17/10/2 32/11/2 31/12/2
f 14/13/3 27/14/3 20/15/3 9/16/3 26/9/3 21/17/3
f 16/18/4 13/19/4 11/20/4 27/14/4
f 11/20/5 13/21/5 25/22/5 19/10/5
f 2/23/5 1/24/5 29/25/5 12/26/5
f 21/17/6 10/27/6 3/28/6 14/13/6
f 20/15/3 27/14/3 11/20/3 19/29/3
f 12/30/3 7/6/3 8/4/3 15/31/3 4/3/3 2/1/3
f 22/17/4 8/4/4 7/6/4 18/10/4
f 16/13/1 23/32/1 25/33/1 13/20/1
f 23/34/5 15/13/5 8/28/5 22/35/5
f 26/9/3 9/16/3 5/36/3 17/10/3
f 4/28/5 15/37/5 23/32/5 16/13/5
f 24/38/1 28/38/1 3/38/1 10/38/1
f 5/6/4 9/4/4 22/39/4 18/40/4
f 19/10/2 25/41/2 23/34/2 20/17/2
f 27/14/4 14/13/4 3/42/4 28/43/4 4/44/4 16/18/4
f 20/17/5 23/34/5 22/35/5 9/27/5
f 4/44/4 28/43/4 1/45/4 2/46/4
f 26/9/2 24/5/2 10/4/2 21/17/2
f 8/4/4 18/10/4 22/17/4
f 12/26/1 8/4/1 7/6/1
f 12/26/3 4/3/3 2/1/3
f 22/17/4 18/10/4 9/4/4
f 12/26/5 29/25/5 30/47/5 7/48/5
f 7/48/5 30/47/5 6/49/5 31/50/5
f 31/50/5 32/51/5 18/52/5 7/48/5
f 18/52/5 32/51/5 17/10/5 5/36/5
l 12 15
l 8 24
l 8 28
l 8 26
