# Blender 4.3.2
# www.blender.org
mtllib open_ceiling.mtl
o Plane.001
v -2.000000 0.000000 -2.000000
v 2.000000 0.000000 -2.000000
v -2.000000 -0.000000 2.000000
v 2.000000 -0.000000 2.000000
v -1.750000 -0.000000 1.750000
v -1.750000 0.000000 -1.750000
v 1.750000 0.000000 -1.750000
v 1.750000 -0.000000 1.750000
v -1.750000 -0.000000 1.750000
v -1.750000 0.000000 -1.750000
v 1.750000 0.000000 -1.750000
v 1.750000 -0.000000 1.750000
v -1.750000 -0.000000 1.750000
v -1.750000 0.000000 -1.750000
v 1.750000 0.000000 -1.750000
v 1.750000 -0.000000 1.750000
v -1.750000 1.000000 1.750000
v -1.750000 1.000000 -1.750000
v 1.750000 1.000000 -1.750000
v 1.750000 1.000000 1.750000
vn -0.0000 -1.0000 -0.0000
vn -0.0000 -0.0000 -1.0000
vn -0.0000 -0.0000 1.0000
vn -1.0000 -0.0000 -0.0000
vn 1.0000 -0.0000 -0.0000
vt 0.937500 0.937500
vt 0.062500 0.937500
vt 0.062500 0.062500
vt 0.000000 1.000000
vt 0.000000 0.000000
vt 0.937500 0.062500
vt 1.000000 0.000000
vt 1.000000 1.000000
s 0
f 8/1/1 5/2/1 9/2/1 12/1/1
f 6/3/1 5/2/1 3/4/1 1/5/1
f 7/6/1 6/3/1 1/5/1 2/7/1
f 8/1/1 7/6/1 2/7/1 4/8/1
f 5/2/1 8/1/1 4/8/1 3/4/1
f 11/6/1 12/1/1 16/1/1 15/6/1
f 6/3/1 7/6/1 11/6/1 10/3/1
f 7/6/1 8/1/1 12/1/1 11/6/1
f 5/2/1 6/3/1 10/3/1 9/2/1
f 16/1/2 13/2/2 17/2/2 20/1/2
f 9/2/1 10/3/1 14/3/1 13/2/1
f 12/1/1 9/2/1 13/2/1 16/1/1
f 10/3/1 11/6/1 15/6/1 14/3/1
f 18/3/1 19/6/1 20/1/1 17/2/1
f 14/3/3 15/6/3 19/6/3 18/3/3
f 15/6/4 16/1/4 20/1/4 19/6/4
f 13/2/5 14/3/5 18/3/5 17/2/5
