# Blender 4.3.2
# www.blender.org
mtllib arch.mtl
o Circle.001
v 0.000000 3.983078 -0.125000
v -0.289334 3.954581 -0.125000
v -0.567549 3.870185 -0.125000
v -0.823954 3.733134 -0.125000
v -1.048694 3.548694 -0.125000
v -1.233134 3.323954 -0.125000
v -1.370185 3.067549 -0.125000
v -1.454581 2.789334 -0.125000
v -1.484380 2.486778 -0.125000
v 1.484380 2.486778 -0.125000
v 1.454581 2.789334 -0.125000
v 1.370185 3.067549 -0.125000
v 1.233134 3.323954 -0.125000
v 1.048694 3.548694 -0.125000
v 0.823954 3.733134 -0.125000
v 0.567549 3.870185 -0.125000
v 0.289334 3.954581 -0.125000
v -1.484380 -2.491434 -0.125000
v 1.484380 -2.491434 -0.125000
v -0.289334 3.954581 0.125000
v 0.000000 3.983078 0.125000
v -0.567549 3.870185 0.125000
v -0.823954 3.733134 0.125000
v -1.048694 3.548694 0.125000
v -1.233134 3.323954 0.125000
v -1.370185 3.067549 0.125000
v -1.454581 2.789334 0.125000
v -1.484380 2.486778 0.125000
v 1.454581 2.789334 0.125000
v 1.484380 2.486778 0.125000
v 1.370185 3.067549 0.125000
v 1.233134 3.323954 0.125000
v 1.048694 3.548694 0.125000
v 0.823954 3.733134 0.125000
v 0.567549 3.870185 0.125000
v 0.289334 3.954581 0.125000
v 1.484380 -2.491434 0.125000
v -1.484380 -2.491434 0.125000
v -0.342096 4.219833 -0.125000
v 0.000000 4.253527 -0.125000
v -0.671046 4.120048 -0.125000
v -0.974208 3.958004 -0.125000
v -1.239931 3.739931 -0.125000
v -1.458004 3.474207 -0.125000
v -1.620048 3.171046 -0.125000
v -1.719834 2.842096 -0.125000
v -1.753527 2.500000 -0.125000
v 1.719834 2.842096 -0.125000
v 1.753527 2.500000 -0.125000
v 1.620048 3.171046 -0.125000
v 1.458004 3.474207 -0.125000
v 1.239931 3.739931 -0.125000
v 0.974208 3.958004 -0.125000
v 0.671046 4.120048 -0.125000
v 0.342096 4.219833 -0.125000
v 1.753527 -2.760581 -0.125000
v -1.753527 -2.760581 -0.125000
v -0.342096 4.219833 0.125000
v 0.000000 4.253527 0.125000
v -0.671046 4.120048 0.125000
v -0.974208 3.958004 0.125000
v -1.239931 3.739931 0.125000
v -1.458004 3.474207 0.125000
v -1.620048 3.171046 0.125000
v -1.719834 2.842096 0.125000
v -1.753527 2.500000 0.125000
v 1.719834 2.842096 0.125000
v 1.753527 2.500000 0.125000
v 1.620048 3.171046 0.125000
v 1.458004 3.474207 0.125000
v 1.239931 3.739931 0.125000
v 0.974208 3.958004 0.125000
v 0.671046 4.120048 0.125000
v 0.342096 4.219833 0.125000
v 1.753527 -2.760581 0.125000
v -1.753527 -2.760581 0.125000
vn -0.0000 1.0000 -0.0000
vn -1.0000 -0.0000 -0.0000
vn -0.9952 -0.0980 -0.0000
vn -0.9569 -0.2903 -0.0000
vn 0.7730 0.6344 -0.0000
vn -0.7730 0.6344 -0.0000
vn 0.6344 0.7730 -0.0000
vn -0.8819 0.4714 -0.0000
vn 0.4714 0.8819 -0.0000
vn -0.9569 0.2903 -0.0000
vn 0.2903 0.9569 -0.0000
vn -0.9952 0.0980 -0.0000
vn -0.0980 0.9952 -0.0000
vn 0.0980 0.9952 -0.0000
vn 0.9952 0.0980 -0.0000
vn -0.2903 0.9569 -0.0000
vn 0.9569 0.2903 -0.0000
vn -0.4714 0.8819 -0.0000
vn 1.0000 -0.0000 -0.0000
vn 0.8819 0.4714 -0.0000
vn -0.6344 0.7730 -0.0000
vn -0.0000 -1.0000 -0.0000
vn -0.0000 -0.0000 -1.0000
vn -0.0000 -0.0000 1.0000
vn 0.9952 -0.0980 -0.0000
vn 0.9569 -0.2903 -0.0000
vn 0.8819 -0.4714 -0.0000
vn 0.7730 -0.6344 -0.0000
vn 0.6344 -0.7730 -0.0000
vn 0.4714 -0.8819 -0.0000
vn 0.2903 -0.9569 -0.0000
vn 0.0980 -0.9952 -0.0000
vn -0.0980 -0.9952 -0.0000
vn -0.2903 -0.9569 -0.0000
vn -0.4714 -0.8819 -0.0000
vn -0.6344 -0.7730 -0.0000
vn -0.7730 -0.6344 -0.0000
vn -0.8819 -0.4714 -0.0000
vt 0.000000 0.000000
s 0
f 37/1/1 19/1/1 18/1/1 38/1/1
f 30/1/2 10/1/2 19/1/2 37/1/2
f 29/1/3 11/1/3 10/1/3 30/1/3
f 29/1/4 31/1/4 12/1/4 11/1/4
f 51/1/5 52/1/5 71/1/5 70/1/5
f 43/1/6 44/1/6 63/1/6 62/1/6
f 47/1/2 57/1/2 76/1/2 66/1/2
f 52/1/7 53/1/7 72/1/7 71/1/7
f 44/1/8 45/1/8 64/1/8 63/1/8
f 53/1/9 54/1/9 73/1/9 72/1/9
f 45/1/10 46/1/10 65/1/10 64/1/10
f 54/1/11 55/1/11 74/1/11 73/1/11
f 46/1/12 47/1/12 66/1/12 65/1/12
f 40/1/13 39/1/13 58/1/13 59/1/13
f 55/1/14 40/1/14 59/1/14 74/1/14
f 49/1/15 48/1/15 67/1/15 68/1/15
f 39/1/16 41/1/16 60/1/16 58/1/16
f 48/1/17 50/1/17 69/1/17 67/1/17
f 41/1/18 42/1/18 61/1/18 60/1/18
f 56/1/19 49/1/19 68/1/19 75/1/19
f 50/1/20 51/1/20 70/1/20 69/1/20
f 42/1/21 43/1/21 62/1/21 61/1/21
f 57/1/22 56/1/22 75/1/22 76/1/22
f 1/1/23 2/1/23 39/1/23 40/1/23
f 2/1/23 3/1/23 41/1/23 39/1/23
f 3/1/23 4/1/23 42/1/23 41/1/23
f 4/1/23 5/1/23 43/1/23 42/1/23
f 5/1/23 6/1/23 44/1/23 43/1/23
f 6/1/23 7/1/23 45/1/23 44/1/23
f 7/1/23 8/1/23 46/1/23 45/1/23
f 8/1/23 9/1/23 47/1/23 46/1/23
f 10/1/23 11/1/23 48/1/23 49/1/23
f 11/1/23 12/1/23 50/1/23 48/1/23
f 12/1/23 13/1/23 51/1/23 50/1/23
f 13/1/23 14/1/23 52/1/23 51/1/23
f 14/1/23 15/1/23 53/1/23 52/1/23
f 15/1/23 16/1/23 54/1/23 53/1/23
f 16/1/23 17/1/23 55/1/23 54/1/23
f 17/1/23 1/1/23 40/1/23 55/1/23
f 19/1/23 10/1/23 49/1/23 56/1/23
f 18/1/23 19/1/23 56/1/23 57/1/23
f 9/1/23 18/1/23 57/1/23 47/1/23
f 20/1/24 21/1/24 59/1/24 58/1/24
f 22/1/24 20/1/24 58/1/24 60/1/24
f 23/1/24 22/1/24 60/1/24 61/1/24
f 24/1/24 23/1/24 61/1/24 62/1/24
f 25/1/24 24/1/24 62/1/24 63/1/24
f 26/1/24 25/1/24 63/1/24 64/1/24
f 27/1/24 26/1/24 64/1/24 65/1/24
f 28/1/24 27/1/24 65/1/24 66/1/24
f 29/1/24 30/1/24 68/1/24 67/1/24
f 31/1/24 29/1/24 67/1/24 69/1/24
f 32/1/24 31/1/24 69/1/24 70/1/24
f 33/1/24 32/1/24 70/1/24 71/1/24
f 34/1/24 33/1/24 71/1/24 72/1/24
f 35/1/24 34/1/24 72/1/24 73/1/24
f 36/1/24 35/1/24 73/1/24 74/1/24
f 21/1/24 36/1/24 74/1/24 59/1/24
f 30/1/24 37/1/24 75/1/24 68/1/24
f 37/1/24 38/1/24 76/1/24 75/1/24
f 38/1/24 28/1/24 66/1/24 76/1/24
f 38/1/19 18/1/19 9/1/19 28/1/19
f 28/1/25 9/1/25 8/1/25 27/1/25
f 27/1/26 8/1/26 7/1/26 26/1/26
f 26/1/27 7/1/27 6/1/27 25/1/27
f 25/1/28 6/1/28 5/1/28 24/1/28
f 24/1/29 5/1/29 4/1/29 23/1/29
f 23/1/30 4/1/30 3/1/30 22/1/30
f 22/1/31 3/1/31 2/1/31 20/1/31
f 20/1/32 2/1/32 1/1/32 21/1/32
f 21/1/33 1/1/33 17/1/33 36/1/33
f 36/1/34 17/1/34 16/1/34 35/1/34
f 35/1/35 16/1/35 15/1/35 34/1/35
f 34/1/36 15/1/36 14/1/36 33/1/36
f 33/1/37 14/1/37 13/1/37 32/1/37
f 32/1/38 13/1/38 12/1/38 31/1/38
