# Blender 4.3.0
# www.blender.org
mtllib desk.mtl
o Cube
v -2.000000 -0.750000 0.375000
v -2.000000 0.750000 0.375000
v -2.000000 -0.750000 -0.375000
v -2.000000 0.750000 -0.375000
v 2.000000 -0.750000 0.375000
v 2.000000 0.750000 0.375000
v 2.000000 -0.750000 -0.375000
v 2.000000 0.750000 -0.375000
v 1.500024 -0.750000 -2.375000
v 2.000000 -0.750000 -2.375000
v 2.000000 0.750000 -2.375000
v 1.499977 0.750000 -2.375000
v 1.500024 -0.750000 -0.375000
v 1.499977 0.750000 -0.375000
v -1.499971 -0.750000 -0.375000
v -1.500029 0.750000 -0.375000
v -2.000000 0.750000 -2.375000
v -2.000000 -0.750000 -2.375000
v -1.499971 -0.750000 -2.375000
v -1.500029 0.750000 -2.375000
v -2.000000 0.750000 0.375000
v -2.000000 0.750000 -0.375000
v 2.000000 0.750000 0.375000
v 2.000000 0.750000 -0.375000
v 2.000000 0.750000 -2.375000
v 1.499977 0.750000 -2.375000
v 1.499977 0.750000 -0.375000
v -1.500029 0.750000 -0.375000
v -2.000000 0.750000 -2.375000
v -1.500029 0.750000 -2.375000
v -2.000000 0.628498 0.375000
v 2.000000 0.628498 -2.375000
v 2.000000 0.628498 0.375000
v 1.499981 0.628498 -2.375000
v -2.000000 0.628498 -0.375000
v 2.000000 0.628498 -0.375000
v 1.499981 0.628498 -0.375000
v -1.500024 0.628498 -0.375000
v -2.000000 0.628498 -2.375000
v -1.500024 0.628498 -2.375000
v -2.000000 0.628498 0.375000
v -2.000000 0.750000 0.375000
v -2.000000 0.750000 -0.375000
v 1.499977 0.750000 -2.375000
v 2.000000 0.750000 -2.375000
v 2.000000 0.750000 -0.375000
v 2.000000 0.750000 0.375000
v -1.500029 0.750000 -0.375000
v 1.499977 0.750000 -0.375000
v -2.000000 0.750000 -2.375000
v -1.500029 0.750000 -2.375000
v 2.000000 0.628498 -2.375000
v 2.000000 0.628498 0.375000
v 1.499981 0.628498 -2.375000
v -2.000000 0.628498 -0.375000
v 2.000000 0.628498 -0.375000
v 1.499981 0.628498 -0.375000
v -1.500024 0.628498 -0.375000
v -2.000000 0.628498 -2.375000
v -1.500024 0.628498 -2.375000
v -2.000000 0.628498 0.375000
v -2.000000 0.750000 0.375000
v -2.000000 0.750000 -0.375000
v 1.499977 0.750000 -2.375000
v 2.000000 0.750000 -2.375000
v 2.000000 0.750000 -0.375000
v 2.000000 0.750000 0.375000
v -1.500029 0.750000 -0.375000
v 1.499977 0.750000 -0.375000
v -2.000000 0.750000 -2.375000
v -1.500029 0.750000 -2.375000
v 2.000000 0.628498 -2.375000
v 2.000000 0.628498 0.375000
v 1.499981 0.628498 -2.375000
v -2.000000 0.628498 -0.375000
v 2.000000 0.628498 -0.375000
v 1.499981 0.628498 -0.375000
v -1.500024 0.628498 -0.375000
v -2.000000 0.628498 -2.375000
v -1.500024 0.628498 -2.375000
v -2.000000 0.628498 0.375000
v -2.000000 0.750000 0.375000
v -2.000000 0.750000 -0.375000
v 1.499977 0.750000 -2.375000
v 2.000000 0.750000 -2.375000
v 2.000000 0.750000 -0.375000
v 2.000000 0.750000 0.375000
v -1.500029 0.750000 -0.375000
v 1.499977 0.750000 -0.375000
v -2.000000 0.750000 -2.375000
v -1.500029 0.750000 -2.375000
v 2.000000 0.628498 -2.375000
v 2.000000 0.628498 0.375000
v 1.499981 0.628498 -2.375000
v -2.000000 0.628498 -0.375000
v 2.000000 0.628498 -0.375000
v 1.499981 0.628498 -0.375000
v -1.500024 0.628498 -0.375000
v -2.000000 0.628498 -2.375000
v -1.500024 0.628498 -2.375000
v -2.306782 0.628498 0.432522
v -2.306782 0.750000 0.432522
v -2.306800 0.750000 -0.375000
v 1.193193 0.749999 -2.373750
v 2.306782 0.750000 -2.374875
v 2.306800 0.750000 -0.375000
v 2.306782 0.750000 0.432522
v -1.193245 0.750002 -0.432521
v 1.193196 0.749999 -0.432522
v -2.306782 0.750000 -2.374875
v -1.193248 0.750002 -2.374875
v 2.306782 0.628498 -2.374875
v 2.306782 0.628498 0.432522
v 1.193200 0.628497 -2.373750
v -2.306800 0.628498 -0.375000
v 2.300675 0.628498 -0.375000
v 1.193197 0.628497 -0.432521
v -1.193243 0.628500 -0.432522
v -2.306782 0.628498 -2.374875
v -1.193241 0.628500 -2.374875
vn -0.0000 1.0000 -0.0000
vn -0.0000 -0.0000 -1.0000
vn -0.0000 -1.0000 -0.0000
vn 1.0000 -0.0000 -0.0000
vn -1.0000 -0.0000 -0.0000
vn -0.0000 -0.0000 1.0000
vn 0.9997 -0.0252 -0.0038
vn 0.9997 -0.0252 0.0015
vt 0.604750 0.750000
vt 0.604750 0.500000
vt 0.375000 0.500000
vt 0.375000 0.464304
vt 0.604750 0.464302
vt 0.843964 0.500000
vt 0.604750 1.000000
vt 0.125000 0.500000
vt 0.156039 0.500000
vt 0.339304 0.500000
vt 0.375000 0.750000
vt 0.125000 0.750000
vt 0.625000 0.500000
vt 0.660699 0.500000
vt 0.875000 0.500000
vt 0.875000 0.750000
vt 0.625000 0.750000
vt 0.375000 0.281039
vt 0.604750 0.281036
vt 0.375000 0.250000
vt 0.604750 0.250000
vt 0.375000 1.000000
vt 0.375000 0.000000
vt 0.604750 0.000000
vt 0.625000 0.000000
vt 0.625000 0.250000
vt 0.625000 1.000000
vt 0.625000 0.464301
vt 0.625000 0.281036
s 0
f 33/1/1 36/2/1 56/2/1 53/1/1
f 32/2/2 10/3/2 9/4/2 34/5/2
f 20/6/1 16/6/1 48/6/1 51/6/1
f 31/7/1 33/1/1 53/1/1 41/7/1
f 3/8/3 15/9/3 13/10/3 7/3/3 5/11/3 1/12/3
f 8/13/1 14/14/1 16/6/1 4/15/1 2/16/1 6/17/1
f 7/3/3 13/10/3 9/10/3 10/3/3
f 2/16/1 4/15/1 43/15/1 42/16/1
f 36/2/4 7/3/4 10/3/4 32/2/4
f 14/14/1 8/13/1 11/13/1 12/14/1
f 37/5/2 13/4/2 15/18/2 38/19/2
f 40/19/2 19/18/2 18/20/2 39/21/2
f 34/5/1 37/5/1 57/5/1 54/5/1
f 38/19/4 15/18/4 19/18/4 40/19/4
f 15/9/3 3/8/3 18/8/3 19/9/3
f 4/15/1 16/6/1 20/6/1 17/15/1
f 24/13/1 27/14/1 28/6/1 22/15/1 21/16/1 23/17/1
f 27/14/1 24/13/1 25/13/1 26/14/1
f 22/15/1 28/6/1 30/6/1 29/15/1
f 6/17/1 2/16/1 42/16/1 47/17/1
f 3/20/5 35/21/5 39/21/5 18/20/5
f 36/2/1 32/2/1 52/2/1 56/2/1
f 4/15/1 17/15/1 50/15/1 43/15/1
f 11/13/1 8/13/1 46/13/1 45/13/1
f 13/4/5 37/5/5 34/5/5 9/4/5
f 5/11/6 33/1/6 31/7/6 1/22/6
f 7/3/4 36/2/4 33/1/4 5/11/4
f 37/5/1 38/19/1 58/19/1 57/5/1
f 1/23/5 31/24/5 35/21/5 3/20/5
f 41/7/1 53/1/1 73/1/1 61/7/1
f 46/13/1 47/17/1 67/17/1 66/13/1
f 54/5/1 57/5/1 77/5/1 74/5/1
f 51/6/1 48/6/1 68/6/1 71/6/1
f 44/14/1 45/13/1 65/13/1 64/14/1
f 56/2/1 52/2/1 72/2/1 76/2/1
f 43/15/1 50/15/1 70/15/1 63/15/1
f 42/16/1 43/15/1 63/15/1 62/16/1
f 57/5/1 58/19/1 78/19/1 77/5/1
f 50/15/1 51/6/1 71/6/1 70/15/1
f 12/14/1 11/13/1 45/13/1 44/14/1
f 38/19/1 40/19/1 60/19/1 58/19/1
f 32/2/1 34/5/1 54/5/1 52/2/1
f 16/6/1 14/14/1 49/14/1 48/6/1
f 39/21/1 35/21/1 55/21/1 59/21/1
f 35/21/1 31/24/1 41/24/1 55/21/1
f 17/15/1 20/6/1 51/6/1 50/15/1
f 8/13/1 6/17/1 47/17/1 46/13/1
f 14/14/1 12/14/1 44/14/1 49/14/1
f 40/19/1 39/21/1 59/21/1 60/19/1
f 70/15/1 71/6/1 91/6/1 90/15/1
f 80/19/1 79/21/1 99/21/1 100/19/1
f 65/13/1 66/13/1 86/13/1 85/13/1
f 75/21/1 61/24/1 81/24/1 95/21/1
f 79/21/1 75/21/1 95/21/1 99/21/1
f 69/14/1 64/14/1 84/14/1 89/14/1
f 72/2/1 74/5/1 94/5/1 92/2/1
f 78/19/1 80/19/1 100/19/1 98/19/1
f 68/6/1 69/14/1 89/14/1 88/6/1
f 73/1/1 76/2/1 96/2/1 93/1/1
f 47/17/1 42/16/1 62/16/1 67/17/1
f 53/1/1 56/2/1 76/2/1 73/1/1
f 48/6/1 49/14/1 69/14/1 68/6/1
f 58/19/1 60/19/1 80/19/1 78/19/1
f 52/2/1 54/5/1 74/5/1 72/2/1
f 49/14/1 44/14/1 64/14/1 69/14/1
f 59/21/1 55/21/1 75/21/1 79/21/1
f 55/21/1 41/24/1 61/24/1 75/21/1
f 45/13/1 46/13/1 66/13/1 65/13/1
f 60/19/1 59/21/1 79/21/1 80/19/1
f 99/21/3 95/21/3 115/21/3 119/21/3
f 89/14/1 84/14/1 104/14/1 109/14/1
f 98/19/3 100/19/3 120/19/3 118/19/3
f 88/6/1 89/14/1 109/14/1 108/6/1
f 93/1/3 96/2/3 116/2/3 113/1/3
f 87/17/1 82/16/1 102/16/1 107/17/1
f 81/7/3 93/1/3 113/1/3 101/7/3
f 86/13/1 87/17/1 107/17/1 106/13/1
f 94/5/3 97/5/3 117/5/3 114/5/3
f 77/5/1 78/19/1 98/19/1 97/5/1
f 62/16/1 63/15/1 83/15/1 82/16/1
f 63/15/1 70/15/1 90/15/1 83/15/1
f 76/2/1 72/2/1 92/2/1 96/2/1
f 64/14/1 65/13/1 85/13/1 84/14/1
f 71/6/1 68/6/1 88/6/1 91/6/1
f 74/5/1 77/5/1 97/5/1 94/5/1
f 66/13/1 67/17/1 87/17/1 86/13/1
f 61/7/1 73/1/1 93/1/1 81/7/1
f 67/17/1 62/16/1 82/16/1 87/17/1
f 101/24/5 102/25/5 103/26/5 115/21/5
f 116/2/7 106/13/7 107/17/7 113/1/7
f 113/1/6 107/17/6 102/27/6 101/7/6
f 117/5/5 109/28/5 104/28/5 114/5/5
f 115/21/5 103/26/5 110/26/5 119/21/5
f 108/29/4 118/19/4 120/19/4 111/29/4
f 109/28/2 117/5/2 118/19/2 108/29/2
f 106/13/8 116/2/8 112/2/8 105/13/8
f 95/21/3 81/24/3 101/24/3 115/21/3
f 85/13/1 86/13/1 106/13/1 105/13/1
f 97/5/3 98/19/3 118/19/3 117/5/3
f 82/16/1 83/15/1 103/15/1 102/16/1
f 83/15/1 90/15/1 110/15/1 103/15/1
f 96/2/3 92/2/3 112/2/3 116/2/3
f 91/6/1 88/6/1 108/6/1 111/6/1
