# Blender 4.3.0
# www.blender.org
mtllib hall_lock.mtl
o Circle
v 0.000000 0.000000 -0.750000
v -0.146318 0.000000 -0.735589
v -0.287013 0.000000 -0.692910
v -0.416678 0.000000 -0.623602
v -0.530330 0.000000 -0.530330
v -0.623602 0.000000 -0.416678
v -0.692910 0.000000 -0.287013
v -0.735589 0.000000 -0.146318
v -0.750000 0.000000 0.000000
v -0.735589 0.000000 0.146318
v -0.692910 0.000000 0.287013
v -0.623602 0.000000 0.416678
v -0.530330 0.000000 0.530330
v -0.416678 0.000000 0.623602
v -0.287013 0.000000 0.692910
v -0.146318 0.000000 0.735589
v 0.000000 0.000000 0.750000
v 0.146318 0.000000 0.735589
v 0.287013 0.000000 0.692910
v 0.416678 0.000000 0.623602
v 0.530330 0.000000 0.530330
v 0.623602 0.000000 0.416678
v 0.692910 0.000000 0.287013
v 0.735589 0.000000 0.146318
v 0.750000 0.000000 0.000000
v 0.735589 0.000000 -0.146318
v 0.692910 0.000000 -0.287013
v 0.623602 0.000000 -0.416678
v 0.530330 0.000000 -0.530330
v 0.416678 0.000000 -0.623602
v 0.287013 0.000000 -0.692910
v 0.146318 0.000000 -0.735589
v -0.138966 0.000000 -0.698632
v 0.000000 0.000000 -0.712319
v -0.272593 0.000000 -0.658097
v -0.395743 0.000000 -0.592271
v -0.503685 0.000000 -0.503685
v -0.592271 0.000000 -0.395743
v -0.658097 0.000000 -0.272593
v -0.698632 0.000000 -0.138966
v -0.712319 0.000000 0.000000
v -0.272593 0.100000 0.658097
v -0.395743 0.100000 0.592271
v -0.503685 0.100000 0.503685
v -0.592271 0.100000 0.395743
v -0.658097 0.100000 0.272593
v -0.698632 0.100000 0.138966
v -0.712319 0.100000 0.000000
v -0.698632 0.100000 -0.138966
v -0.658097 0.100000 -0.272593
v -0.592271 0.100000 -0.395743
v -0.503685 0.100000 -0.503685
v -0.395743 0.100000 -0.592271
v -0.272593 0.100000 -0.658097
v 0.000000 0.100000 -0.712319
v -0.138966 0.100000 -0.698632
v 0.712319 0.000000 0.000000
v 0.698632 0.000000 -0.138966
v 0.658097 0.000000 -0.272593
v 0.592271 0.000000 -0.395743
v 0.503685 0.000000 -0.503685
v 0.395743 0.000000 -0.592271
v 0.272593 0.000000 -0.658097
v 0.138966 0.000000 -0.698632
v -0.138966 0.000000 -0.698632
v 0.000000 0.000000 -0.712319
v -0.272593 0.000000 -0.658097
v -0.395743 0.000000 -0.592271
v -0.503685 0.000000 -0.503685
v -0.592271 0.000000 -0.395743
v -0.658097 0.000000 -0.272593
v -0.698632 0.000000 -0.138966
v -0.712319 0.000000 0.000000
v 0.712319 0.000000 0.000000
v 0.698632 0.000000 -0.138966
v 0.658097 0.000000 -0.272593
v 0.592271 0.000000 -0.395743
v 0.503685 0.000000 -0.503685
v 0.395743 0.000000 -0.592271
v 0.272593 0.000000 -0.658097
v 0.138966 0.000000 -0.698632
v -0.146318 0.000000 -0.735589
v 0.000000 0.000000 -0.750000
v -0.287013 0.000000 -0.692910
v -0.416678 0.000000 -0.623602
v -0.530330 0.000000 -0.530330
v -0.623602 0.000000 -0.416678
v -0.692910 0.000000 -0.287013
v -0.735589 0.000000 -0.146318
v -0.750000 0.000000 0.000000
v -0.735589 0.000000 0.146318
v -0.692910 0.000000 0.287013
v -0.623602 0.000000 0.416678
v -0.530330 0.000000 0.530330
v -0.416678 0.000000 0.623602
v -0.287013 0.000000 0.692910
v -0.146318 0.000000 0.735589
v 0.000000 0.000000 0.750000
v 0.146318 0.000000 0.735589
v 0.287013 0.000000 0.692910
v 0.416678 0.000000 0.623602
v 0.530330 0.000000 0.530330
v 0.623602 0.000000 0.416678
v 0.692910 0.000000 0.287013
v 0.735589 0.000000 0.146318
v 0.750000 0.000000 0.000000
v 0.735589 0.000000 -0.146318
v 0.692910 0.000000 -0.287013
v 0.623602 0.000000 -0.416678
v 0.530330 0.000000 -0.530330
v 0.416678 0.000000 -0.623602
v 0.287013 0.000000 -0.692910
v 0.146318 0.000000 -0.735589
v -0.138966 0.100000 0.698632
v 0.000000 0.100000 0.712319
v 0.138966 0.100000 0.698632
v 0.272593 0.100000 0.658097
v 0.395743 0.100000 0.592271
v 0.503685 0.100000 0.503685
v 0.592271 0.100000 0.395743
v 0.658097 0.100000 0.272593
v 0.698632 0.100000 0.138966
v 0.712319 0.100000 0.000000
v 0.698632 0.100000 -0.138966
v 0.658097 0.100000 -0.272593
v 0.592271 0.100000 -0.395743
v 0.503685 0.100000 -0.503685
v 0.395743 0.100000 -0.592271
v 0.272593 0.100000 -0.658097
v 0.138966 0.100000 -0.698632
v -0.146318 0.100000 -0.735589
v 0.000000 0.100000 -0.750000
v -0.287013 0.100000 -0.692910
v -0.416678 0.100000 -0.623602
v -0.530330 0.100000 -0.530330
v -0.623602 0.100000 -0.416678
v -0.692910 0.100000 -0.287013
v -0.735589 0.100000 -0.146318
v -0.750000 0.100000 0.000000
v -0.735589 0.100000 0.146318
v -0.692910 0.100000 0.287013
v -0.623602 0.100000 0.416678
v -0.530330 0.100000 0.530330
v -0.416678 0.100000 0.623602
v -0.287013 0.100000 0.692910
v -0.146318 0.100000 0.735589
v 0.000000 0.100000 0.750000
v 0.146318 0.100000 0.735589
v 0.287013 0.100000 0.692910
v 0.416678 0.100000 0.623602
v 0.530330 0.100000 0.530330
v 0.623602 0.100000 0.416678
v 0.692910 0.100000 0.287013
v 0.735589 0.100000 0.146318
v 0.750000 0.100000 0.000000
v 0.735589 0.100000 -0.146318
v 0.692910 0.100000 -0.287013
v 0.623602 0.100000 -0.416678
v 0.530330 0.100000 -0.530330
v 0.416678 0.100000 -0.623602
v 0.287013 0.100000 -0.692910
v 0.146318 0.100000 -0.735589
vn -0.0000 1.0000 -0.0000
vn 0.9569 -0.0000 -0.2903
vn -0.2903 -0.0000 0.9569
vn 0.6344 -0.0000 0.7730
vn -0.7730 -0.0000 0.6344
vn 0.9952 -0.0000 -0.0980
vn -0.4714 -0.0000 0.8819
vn -0.0000 -0.0000 -1.0000
vn 0.4714 -0.0000 0.8819
vn -0.8819 -0.0000 0.4714
vn 0.9952 -0.0000 0.0980
vn -0.6344 -0.0000 0.7730
vn 0.2903 -0.0000 0.9569
vn -0.9569 -0.0000 0.2903
vn 0.9569 -0.0000 0.2903
vn 0.0980 -0.0000 0.9952
vn -0.9952 -0.0000 0.0980
vn 0.8819 -0.0000 0.4714
vn -0.9952 -0.0000 -0.0980
vn 0.7730 -0.0000 0.6344
vn -0.9569 -0.0000 -0.2903
vn -0.8819 -0.0000 -0.4714
vn 0.0980 -0.0000 -0.9952
vn -0.7730 -0.0000 -0.6344
vn 0.2903 -0.0000 -0.9569
vn -0.6344 -0.0000 -0.7730
vn -0.0980 -0.0000 0.9952
vn 0.8819 -0.0000 -0.4714
vn -0.0980 -0.0000 -0.9952
vn 0.7730 -0.0000 -0.6344
vn -0.2903 -0.0000 -0.9569
vn 0.6344 -0.0000 -0.7730
vn -0.4714 -0.0000 -0.8819
vn 0.4714 -0.0000 -0.8819
vt 0.593737 0.218074
vt 0.586973 0.240373
vt 0.575988 0.260924
vt 0.561205 0.278937
vt 0.543192 0.293720
vt 0.522641 0.304705
vt 0.500342 0.311469
vt 0.477151 0.313753
vt 0.477151 0.076013
vt 0.500342 0.078297
vt 0.522641 0.085062
vt 0.543192 0.096047
vt 0.561205 0.110830
vt 0.575988 0.128843
vt 0.586973 0.149394
vt 0.593737 0.171693
vt 0.596021 0.194883
vt 0.641694 0.811304
vt 0.076013 0.822675
vt 0.654210 0.641928
vt 0.654210 0.659277
vt 0.641694 0.659277
vt 0.641694 0.641928
vt 0.253072 0.513004
vt 0.253072 0.534533
vt 0.240556 0.534533
vt 0.240556 0.513004
vt 0.818752 0.866605
vt 0.818752 0.888134
vt 0.806237 0.888134
vt 0.806237 0.866605
vt 0.088529 0.537568
vt 0.088529 0.561632
vt 0.076013 0.561632
vt 0.076013 0.537568
vt 0.654210 0.621528
vt 0.641694 0.621528
vt 0.253072 0.557388
vt 0.240556 0.557388
vt 0.489667 0.465780
vt 0.489667 0.683983
vt 0.477151 0.683983
vt 0.477151 0.465780
vt 0.818752 0.907509
vt 0.806237 0.907509
vt 0.088529 0.514901
vt 0.076013 0.514901
vt 0.654210 0.598860
vt 0.641694 0.598860
vt 0.253072 0.580690
vt 0.240556 0.580690
vt 0.818752 0.923987
vt 0.806237 0.923987
vt 0.088529 0.494500
vt 0.076013 0.494500
vt 0.654210 0.574796
vt 0.641694 0.574796
vt 0.253072 0.603545
vt 0.240556 0.603545
vt 0.253072 0.477151
vt 0.253072 0.493629
vt 0.240556 0.493629
vt 0.240556 0.477151
vt 0.088529 0.477151
vt 0.076013 0.477151
vt 0.654210 0.550261
vt 0.641694 0.550261
vt 0.253072 0.625074
vt 0.240556 0.625074
vt 0.760564 0.214412
vt 0.760564 0.234812
vt 0.748048 0.234812
vt 0.748048 0.214412
vt 0.654210 0.526197
vt 0.641694 0.526197
vt 0.253072 0.644449
vt 0.240556 0.644449
vt 0.760564 0.191744
vt 0.748048 0.191744
vt 0.654210 0.503530
vt 0.641694 0.503530
vt 0.253072 0.796476
vt 0.253072 0.812953
vt 0.240556 0.812953
vt 0.240556 0.796476
vt 0.760564 0.167681
vt 0.748048 0.167681
vt 0.654210 0.483129
vt 0.641694 0.483129
vt 0.818752 0.579216
vt 0.818752 0.602581
vt 0.806237 0.602581
vt 0.806237 0.579216
vt 0.760564 0.143145
vt 0.748048 0.143145
vt 0.654210 0.465780
vt 0.641694 0.465780
vt 0.818752 0.554839
vt 0.806237 0.554839
vt 0.760564 0.119081
vt 0.748048 0.119081
vt 0.088529 0.653299
vt 0.088529 0.670648
vt 0.076013 0.670648
vt 0.076013 0.653299
vt 0.095735 0.256604
vt 0.108681 0.275979
vt 0.103820 0.279968
vt 0.090189 0.259568
vt 0.086817 0.235075
vt 0.080800 0.236900
vt 0.082271 0.212220
vt 0.076013 0.212837
vt 0.082271 0.188918
vt 0.076013 0.188301
vt 0.086817 0.166063
vt 0.080800 0.164237
vt 0.095735 0.144534
vt 0.090189 0.141570
vt 0.108681 0.125159
vt 0.103820 0.121169
vt 0.125159 0.108681
vt 0.121169 0.103820
vt 0.144534 0.095735
vt 0.141570 0.090189
vt 0.166063 0.086817
vt 0.164237 0.080800
vt 0.188918 0.082271
vt 0.188301 0.076013
vt 0.212220 0.082271
vt 0.212837 0.076013
vt 0.235075 0.086817
vt 0.236900 0.080800
vt 0.256604 0.095735
vt 0.259568 0.090189
vt 0.275979 0.108681
vt 0.279968 0.103820
vt 0.292457 0.125159
vt 0.297317 0.121169
vt 0.305403 0.144534
vt 0.310948 0.141570
vt 0.314320 0.166063
vt 0.320338 0.164237
vt 0.318866 0.188918
vt 0.325124 0.188301
vt 0.318866 0.212220
vt 0.325124 0.212837
vt 0.314320 0.235075
vt 0.320338 0.236900
vt 0.305403 0.256604
vt 0.310948 0.259568
vt 0.292457 0.275979
vt 0.297317 0.279968
vt 0.275979 0.292457
vt 0.279968 0.297317
vt 0.256604 0.305403
vt 0.259568 0.310948
vt 0.235075 0.314320
vt 0.236900 0.320338
vt 0.212220 0.318866
vt 0.212837 0.325124
vt 0.188918 0.318866
vt 0.188301 0.325124
vt 0.166063 0.314320
vt 0.164237 0.320338
vt 0.144534 0.305403
vt 0.141570 0.310948
vt 0.125159 0.292457
vt 0.121169 0.297317
vt 0.088529 0.586167
vt 0.076013 0.586167
vt 0.818752 0.843750
vt 0.806237 0.843750
vt 0.818752 0.465780
vt 0.818752 0.484986
vt 0.806237 0.484986
vt 0.806237 0.465780
vt 0.088529 0.610231
vt 0.076013 0.610231
vt 0.818752 0.820448
vt 0.806237 0.820448
vt 0.818752 0.624037
vt 0.806237 0.624037
vt 0.818752 0.506801
vt 0.806237 0.506801
vt 0.088529 0.632899
vt 0.076013 0.632899
vt 0.818752 0.797593
vt 0.806237 0.797593
vt 0.760564 0.076013
vt 0.760564 0.096414
vt 0.748048 0.096414
vt 0.748048 0.076013
vt 0.818752 0.530388
vt 0.806237 0.530388
vt 0.818752 0.776064
vt 0.806237 0.776064
s 0
usemtl Material.001
f 33/1/1 35/2/1 36/3/1 37/4/1 38/5/1 39/6/1 40/7/1 41/8/1 57/9/1 58/10/1 59/11/1 60/12/1 61/13/1 62/14/1 63/15/1 64/16/1 34/17/1
f 15/18/1 16/18/1 97/18/1 96/18/1
f 28/18/1 29/18/1 110/18/1 109/18/1
f 1/18/1 2/18/1 82/18/1 83/18/1
f 39/19/1 38/19/1 70/19/1 71/19/1
f 14/18/1 15/18/1 96/18/1 95/18/1
f 27/18/1 28/18/1 109/18/1 108/18/1
f 34/19/1 64/19/1 81/19/1 66/19/1
f 38/19/1 37/19/1 69/19/1 70/19/1
f 13/18/1 14/18/1 95/18/1 94/18/1
f 26/18/1 27/18/1 108/18/1 107/18/1
f 64/19/1 63/19/1 80/19/1 81/19/1
f 37/19/1 36/19/1 68/19/1 69/19/1
f 12/18/1 13/18/1 94/18/1 93/18/1
f 25/18/1 26/18/1 107/18/1 106/18/1
f 63/19/1 62/19/1 79/19/1 80/19/1
f 57/19/1 41/19/1 73/19/1 74/19/1
f 36/19/1 35/19/1 67/19/1 68/19/1
f 11/18/1 12/18/1 93/18/1 92/18/1
f 24/18/1 25/18/1 106/18/1 105/18/1
f 62/19/1 61/19/1 78/19/1 79/19/1
f 35/19/1 33/19/1 65/19/1 67/19/1
f 10/18/1 11/18/1 92/18/1 91/18/1
f 23/18/1 24/18/1 105/18/1 104/18/1
f 61/19/1 60/19/1 77/19/1 78/19/1
f 33/19/1 34/19/1 66/19/1 65/19/1
f 9/18/1 10/18/1 91/18/1 90/18/1
f 22/18/1 23/18/1 104/18/1 103/18/1
f 60/19/1 59/19/1 76/19/1 77/19/1
f 8/18/1 9/18/1 90/18/1 89/18/1
f 21/18/1 22/18/1 103/18/1 102/18/1
f 59/19/1 58/19/1 75/19/1 76/19/1
f 7/18/1 8/18/1 89/18/1 88/18/1
f 20/18/1 21/18/1 102/18/1 101/18/1
f 107/20/2 108/21/2 157/22/2 156/23/2
f 81/24/3 80/25/3 129/26/3 130/27/3
f 69/28/4 68/29/4 53/30/4 52/31/4
f 93/32/5 94/33/5 143/34/5 142/35/5
f 106/36/6 107/20/6 156/23/6 155/37/6
f 80/25/7 79/38/7 128/39/7 129/26/7
f 74/40/8 73/41/8 48/42/8 123/43/8
f 68/29/9 67/44/9 54/45/9 53/30/9
f 92/46/10 93/32/10 142/35/10 141/47/10
f 105/48/11 106/36/11 155/37/11 154/49/11
f 79/38/12 78/50/12 127/51/12 128/39/12
f 67/44/13 65/52/13 56/53/13 54/45/13
f 91/54/14 92/46/14 141/47/14 140/55/14
f 104/56/15 105/48/15 154/49/15 153/57/15
f 78/50/5 77/58/5 126/59/5 127/51/5
f 65/60/16 66/61/16 55/62/16 56/63/16
f 90/64/17 91/54/17 140/55/17 139/65/17
f 103/66/18 104/56/18 153/57/18 152/67/18
f 77/58/10 76/68/10 125/69/10 126/59/10
f 89/70/19 90/71/19 139/72/19 138/73/19
f 102/74/20 103/66/20 152/67/20 151/75/20
f 76/68/14 75/76/14 124/77/14 125/69/14
f 88/78/21 89/70/21 138/73/21 137/79/21
f 101/80/4 102/74/4 151/75/4 150/81/4
f 75/82/17 74/83/17 123/84/17 124/85/17
f 87/86/22 88/78/22 137/79/22 136/87/22
f 100/88/9 101/80/9 150/81/9 149/89/9
f 113/90/23 83/91/23 132/92/23 162/93/23
f 86/94/24 87/86/24 136/87/24 135/95/24
f 99/96/13 100/88/13 149/89/13 148/97/13
f 112/98/25 113/90/25 162/93/25 161/99/25
f 85/100/26 86/94/26 135/95/26 134/101/26
f 98/102/16 99/103/16 148/104/16 147/105/16
f 40/19/1 39/19/1 71/19/1 72/19/1
f 2/18/1 3/18/1 84/18/1 82/18/1
f 29/18/1 30/18/1 111/18/1 110/18/1
f 16/18/1 17/18/1 98/18/1 97/18/1
f 41/19/1 40/19/1 72/19/1 73/19/1
f 3/18/1 4/18/1 85/18/1 84/18/1
f 30/18/1 31/18/1 112/18/1 111/18/1
f 17/18/1 18/18/1 99/18/1 98/18/1
f 4/18/1 5/18/1 86/18/1 85/18/1
f 31/18/1 32/18/1 113/18/1 112/18/1
f 18/18/1 19/18/1 100/18/1 99/18/1
f 5/18/1 6/18/1 87/18/1 86/18/1
f 32/18/1 1/18/1 83/18/1 113/18/1
f 19/18/1 20/18/1 101/18/1 100/18/1
f 6/18/1 7/18/1 88/18/1 87/18/1
f 58/19/1 57/19/1 74/19/1 75/19/1
f 56/106/1 55/107/1 132/108/1 131/109/1
f 54/110/1 56/106/1 131/109/1 133/111/1
f 53/112/1 54/110/1 133/111/1 134/113/1
f 52/114/1 53/112/1 134/113/1 135/115/1
f 51/116/1 52/114/1 135/115/1 136/117/1
f 50/118/1 51/116/1 136/117/1 137/119/1
f 49/120/1 50/118/1 137/119/1 138/121/1
f 48/122/1 49/120/1 138/121/1 139/123/1
f 47/124/1 48/122/1 139/123/1 140/125/1
f 46/126/1 47/124/1 140/125/1 141/127/1
f 45/128/1 46/126/1 141/127/1 142/129/1
f 44/130/1 45/128/1 142/129/1 143/131/1
f 43/132/1 44/130/1 143/131/1 144/133/1
f 42/134/1 43/132/1 144/133/1 145/135/1
f 114/136/1 42/134/1 145/135/1 146/137/1
f 115/138/1 114/136/1 146/137/1 147/139/1
f 116/140/1 115/138/1 147/139/1 148/141/1
f 117/142/1 116/140/1 148/141/1 149/143/1
f 118/144/1 117/142/1 149/143/1 150/145/1
f 119/146/1 118/144/1 150/145/1 151/147/1
f 120/148/1 119/146/1 151/147/1 152/149/1
f 121/150/1 120/148/1 152/149/1 153/151/1
f 122/152/1 121/150/1 153/151/1 154/153/1
f 123/154/1 122/152/1 154/153/1 155/155/1
f 124/156/1 123/154/1 155/155/1 156/157/1
f 125/158/1 124/156/1 156/157/1 157/159/1
f 126/160/1 125/158/1 157/159/1 158/161/1
f 127/162/1 126/160/1 158/161/1 159/163/1
f 128/164/1 127/162/1 159/163/1 160/165/1
f 129/166/1 128/164/1 160/165/1 161/167/1
f 130/168/1 129/166/1 161/167/1 162/169/1
f 55/107/1 130/168/1 162/169/1 132/108/1
f 123/154/1 48/122/1 47/124/1 46/126/1 45/128/1 44/130/1 43/132/1 42/134/1 114/136/1 115/138/1 116/140/1 117/142/1 118/144/1 119/146/1 120/148/1 121/150/1 122/152/1
f 94/33/12 95/170/12 144/171/12 143/34/12
f 70/172/20 69/28/20 52/31/20 51/173/20
f 66/61/27 81/24/27 130/27/27 55/62/27
f 108/174/28 109/175/28 158/176/28 157/177/28
f 95/170/7 96/178/7 145/179/7 144/171/7
f 71/180/18 70/172/18 51/173/18 50/181/18
f 83/91/29 82/182/29 131/183/29 132/92/29
f 109/175/30 110/184/30 159/185/30 158/176/30
f 96/178/3 97/186/3 146/187/3 145/179/3
f 72/188/15 71/180/15 50/181/15 49/189/15
f 82/190/31 84/191/31 133/192/31 131/193/31
f 110/184/32 111/194/32 160/195/32 159/185/32
f 97/186/27 98/102/27 147/105/27 146/187/27
f 73/196/11 72/188/11 49/189/11 48/197/11
f 84/191/33 85/100/33 134/101/33 133/192/33
f 111/194/34 112/98/34 161/99/34 160/195/34
