# Blender 4.3.2
# www.blender.org
mtllib leaf.mtl
o Plane
v 0.001264 0.004174 -0.008955
v 0.001301 0.004130 0.007067
v 0.482434 0.830387 0.000257
v 0.417633 0.799557 -0.094594
v 0.350209 0.738056 -0.149696
v 0.284022 0.674963 -0.149719
v 0.219642 0.609527 -0.149754
v 0.159678 0.539488 -0.117407
v 0.119804 0.455040 -0.007965
v 0.073879 0.376584 -0.008079
v 0.038012 0.293494 -0.008229
v 0.010714 0.207033 -0.008408
v 0.000054 0.116752 -0.008637
v 0.000091 0.116707 0.007385
v 0.010751 0.206988 0.007614
v 0.038049 0.293449 0.007793
v 0.073916 0.376539 0.007943
v 0.119842 0.454995 0.008057
v 0.160224 0.538829 0.117784
v 0.220338 0.608686 0.150244
v 0.284718 0.674121 0.150279
v 0.350906 0.737215 0.150302
v 0.418074 0.799024 0.095233
v 0.001796 0.004152 -0.001882
v 0.431316 0.784499 0.000247
v 0.073897 0.376562 -0.000068
v 0.119823 0.455017 0.000046
v 0.175581 0.526681 0.000117
v 0.234733 0.595592 0.000173
v 0.000072 0.116729 -0.000626
v 0.298499 0.660387 0.000207
v 0.010732 0.207011 -0.000397
v 0.364284 0.723089 0.000230
v 0.038030 0.293471 -0.000218
v 0.001264 0.004174 -0.008955
v 0.001301 0.004130 0.007067
v 0.482434 0.830387 0.000257
v 0.417633 0.799557 -0.094594
v 0.350209 0.738056 -0.149696
v 0.284022 0.674963 -0.149719
v 0.219642 0.609527 -0.149754
v 0.159678 0.539488 -0.117407
v 0.119804 0.455040 -0.007965
v 0.073879 0.376584 -0.008079
v 0.038012 0.293494 -0.008229
v 0.010714 0.207033 -0.008408
v 0.000054 0.116752 -0.008637
v 0.000091 0.116707 0.007385
v 0.010751 0.206988 0.007614
v 0.038049 0.293449 0.007793
v 0.073916 0.376539 0.007943
v 0.119842 0.454995 0.008057
v 0.160224 0.538829 0.117784
v 0.220338 0.608686 0.150244
v 0.284718 0.674121 0.150279
v 0.350906 0.737215 0.150302
v 0.418074 0.799024 0.095233
v 0.001796 0.004152 -0.001882
v 0.431316 0.784499 0.000247
v 0.073897 0.376562 -0.000068
v 0.119823 0.455017 0.000046
v 0.175581 0.526681 0.000117
v 0.234733 0.595592 0.000173
v 0.000072 0.116729 -0.000626
v 0.298499 0.660387 0.000207
v 0.010732 0.207011 -0.000397
v 0.364284 0.723089 0.000230
v 0.038030 0.293471 -0.000218
vn -0.6532 0.7276 0.2097
vn -0.9992 -0.0133 0.0364
vn -0.9931 0.1173 0.0026
vn -0.9536 0.3011 0.0031
vn -0.9181 0.3963 0.0032
vn -0.8630 0.5052 0.0034
vn -0.7875 0.5950 0.1607
vn -0.7328 0.6634 0.1513
vn -0.7062 0.6949 0.1357
vn -0.6836 0.7171 0.1357
vn -0.7014 0.6935 0.1646
vn -0.7335 0.6642 -0.1441
vn -0.9995 -0.0128 -0.0281
vn -0.7068 0.6956 -0.1285
vn -0.6842 0.7179 -0.1285
vn -0.6541 0.7287 -0.2026
vn -0.7022 0.6944 -0.1575
vn -0.7882 0.5959 -0.1537
vn 0.6532 -0.7276 -0.2097
vn 0.9992 0.0133 -0.0364
vn 0.9931 -0.1173 -0.0026
vn 0.9536 -0.3011 -0.0031
vn 0.9181 -0.3963 -0.0032
vn 0.8630 -0.5052 -0.0034
vn 0.7875 -0.5950 -0.1607
vn 0.7328 -0.6634 -0.1513
vn 0.7062 -0.6949 -0.1357
vn 0.6836 -0.7171 -0.1357
vn 0.7014 -0.6935 -0.1646
vn 0.7335 -0.6642 0.1441
vn 0.9995 0.0128 0.0281
vn 0.7068 -0.6956 0.1285
vn 0.6842 -0.7179 0.1285
vn 0.6541 -0.7287 0.2026
vn 0.7022 -0.6944 0.1575
vn 0.7882 -0.5959 0.1537
vn -0.0000 1.0000 -0.0000
vt 0.000000 0.931305
vt 0.500000 0.931305
vt 0.000000 1.000000
vt 0.000000 0.000000
vt 0.500000 0.000000
vt 0.499997 0.113123
vt 0.000000 0.113123
vt 0.499997 0.204033
vt 0.000000 0.204033
vt 0.499992 0.294942
vt 0.000000 0.294942
vt 0.499996 0.385851
vt 0.000000 0.385851
vt 0.499995 0.476760
vt 0.000000 0.476760
vt 0.499999 0.567669
vt 0.000000 0.567669
vt 0.499999 0.658578
vt 0.000000 0.658578
vt 0.500000 0.749487
vt 0.000000 0.749487
vt 0.500000 0.840396
vt 0.000000 0.840396
vt 1.000000 0.567669
vt 1.000000 0.658578
vt 1.000000 0.000000
vt 1.000000 0.113123
vt 1.000000 0.749487
vt 1.000000 0.840396
vt 1.000000 0.931305
vt 1.000000 0.204033
vt 1.000000 0.294942
vt 1.000000 0.385851
vt 1.000000 0.476760
s 0
usemtl Material.001
f 4/1/1 25/2/1 3/3/1
f 1/4/2 24/5/2 30/6/2 13/7/2
f 13/7/3 30/6/3 32/8/3 12/9/3
f 12/9/4 32/8/4 34/10/4 11/11/4
f 11/11/5 34/10/5 26/12/5 10/13/5
f 10/13/6 26/12/6 27/14/6 9/15/6
f 9/15/7 27/14/7 28/16/7 8/17/7
f 8/17/8 28/16/8 29/18/8 7/19/8
f 7/19/9 29/18/9 31/20/9 6/21/9
f 6/21/10 31/20/10 33/22/10 5/23/10
f 5/23/11 33/22/11 25/2/11 4/1/11
f 29/18/12 28/16/12 19/24/12 20/25/12
f 30/6/13 24/5/13 2/26/13 14/27/13
f 31/20/14 29/18/14 20/25/14 21/28/14
f 33/22/15 31/20/15 21/28/15 22/29/15
f 3/3/16 25/2/16 23/30/16
f 25/2/17 33/22/17 22/29/17 23/30/17
f 32/8/3 30/6/3 14/27/3 15/31/3
f 34/10/4 32/8/4 15/31/4 16/32/4
f 26/12/5 34/10/5 16/32/5 17/33/5
f 27/14/6 26/12/6 17/33/6 18/34/6
f 28/16/18 27/14/18 18/34/18 19/24/18
f 38/1/19 37/3/19 59/2/19
f 35/4/20 47/7/20 64/6/20 58/5/20
f 47/7/21 46/9/21 66/8/21 64/6/21
f 46/9/22 45/11/22 68/10/22 66/8/22
f 45/11/23 44/13/23 60/12/23 68/10/23
f 44/13/24 43/15/24 61/14/24 60/12/24
f 43/15/25 42/17/25 62/16/25 61/14/25
f 42/17/26 41/19/26 63/18/26 62/16/26
f 41/19/27 40/21/27 65/20/27 63/18/27
f 40/21/28 39/23/28 67/22/28 65/20/28
f 39/23/29 38/1/29 59/2/29 67/22/29
f 63/18/30 54/25/30 53/24/30 62/16/30
f 64/6/31 48/27/31 36/26/31 58/5/31
f 65/20/32 55/28/32 54/25/32 63/18/32
f 67/22/33 56/29/33 55/28/33 65/20/33
f 37/3/34 57/30/34 59/2/34
f 59/2/35 57/30/35 56/29/35 67/22/35
f 66/8/21 49/31/21 48/27/21 64/6/21
f 68/10/22 50/32/22 49/31/22 66/8/22
f 60/12/23 51/33/23 50/32/23 68/10/23
f 61/14/24 52/34/24 51/33/24 60/12/24
f 62/16/36 53/24/36 52/34/36 61/14/36
f 1/4/37 13/7/37 47/7/37 35/4/37
f 2/26/37 24/5/37 58/5/37 36/26/37
f 3/3/37 23/30/37 57/30/37 37/3/37
f 4/1/37 3/3/37 37/3/37 38/1/37
f 5/23/37 4/1/37 38/1/37 39/23/37
f 6/21/37 5/23/37 39/23/37 40/21/37
f 7/19/37 6/21/37 40/21/37 41/19/37
f 8/17/37 7/19/37 41/19/37 42/17/37
f 9/15/37 8/17/37 42/17/37 43/15/37
f 10/13/37 9/15/37 43/15/37 44/13/37
f 11/11/37 10/13/37 44/13/37 45/11/37
f 12/9/37 11/11/37 45/11/37 46/9/37
f 13/7/37 12/9/37 46/9/37 47/7/37
f 14/27/37 2/26/37 36/26/37 48/27/37
f 15/31/37 14/27/37 48/27/37 49/31/37
f 16/32/37 15/31/37 49/31/37 50/32/37
f 17/33/37 16/32/37 50/32/37 51/33/37
f 18/34/37 17/33/37 51/33/37 52/34/37
f 19/24/37 18/34/37 52/34/37 53/24/37
f 20/25/37 19/24/37 53/24/37 54/25/37
f 21/28/37 20/25/37 54/25/37 55/28/37
f 22/29/37 21/28/37 55/28/37 56/29/37
f 23/30/37 22/29/37 56/29/37 57/30/37
f 24/5/37 1/4/37 35/4/37 58/5/37
