# Blender 4.2.3 LTS
# www.blender.org
mtllib pool.mtl
o Cube
v 2.494592 0.600000 -2.494592
v 3.000000 0.000000 -3.000000
v 2.494592 0.600000 2.494592
v 3.000000 0.000000 3.000000
v -2.494592 0.600000 -2.494592
v -3.000000 0.000000 -3.000000
v -2.494592 0.600000 2.494592
v -3.000000 0.000000 3.000000
v 3.000000 0.600000 3.000000
v -3.000000 0.600000 3.000000
v 3.000000 0.600000 -3.000000
v -3.000000 0.600000 -3.000000
v 2.494592 0.037967 2.494592
v -2.494592 0.037967 2.494592
v 2.494592 0.037967 -2.494592
v -2.494592 0.037967 -2.494592
vn 1.0000 -0.0000 -0.0000
vn -0.0000 -0.0000 1.0000
vn -1.0000 -0.0000 -0.0000
vn -0.0000 -1.0000 -0.0000
vn -0.0000 -0.0000 -1.0000
vn -0.0000 1.0000 -0.0000
vt 0.853941 0.521059
vt 0.853941 0.728941
vt 0.375000 0.750000
vt 0.625000 0.750000
vt 0.625000 1.000000
vt 0.375000 1.000000
vt 0.375000 0.000000
vt 0.625000 0.000000
vt 0.625000 0.250000
vt 0.375000 0.250000
vt 0.125000 0.500000
vt 0.375000 0.500000
vt 0.125000 0.750000
vt 0.625000 0.500000
vt 0.646059 0.728941
vt 0.875000 0.750000
vt 0.646059 0.521059
vt 0.875000 0.500000
s 0
usemtl Material
f 5/1/1 7/2/1 14/2/1 16/1/1
f 4/3/2 9/4/2 10/5/2 8/6/2
f 8/7/3 10/8/3 12/9/3 6/10/3
f 6/11/4 2/12/4 4/3/4 8/13/4
f 2/12/1 11/14/1 9/4/1 4/3/1
f 6/10/5 12/9/5 11/14/5 2/12/5
f 3/15/6 7/2/6 10/16/6 9/4/6
f 1/17/6 3/15/6 9/4/6 11/14/6
f 7/2/6 5/1/6 12/18/6 10/16/6
f 5/1/6 1/17/6 11/14/6 12/18/6
f 15/17/6 16/1/6 14/2/6 13/15/6
f 7/2/5 3/15/5 13/15/5 14/2/5
f 1/17/2 5/1/2 16/1/2 15/17/2
f 3/15/3 1/17/3 15/17/3 13/15/3
