# Blender 4.3.0
# www.blender.org
mtllib sign.mtl
o Cylinder
v 0.000000 1.500000 -0.025000
v 0.004877 1.500000 -0.024520
v 0.009567 1.500000 -0.023097
v 0.013889 1.500000 -0.020787
v 0.017678 1.500000 -0.017678
v 0.020787 1.500000 -0.013889
v 0.023097 1.500000 -0.009567
v 0.024520 1.500000 -0.004877
v 0.025000 1.500000 0.000000
v 0.024520 1.500000 0.004877
v 0.023097 1.500000 0.009567
v 0.020787 1.500000 0.013889
v 0.017678 1.500000 0.017678
v 0.013889 1.500000 0.020787
v 0.009567 1.500000 0.023097
v 0.004877 1.500000 0.024520
v 0.000000 1.500000 0.025000
v -0.004877 1.500000 0.024520
v -0.009567 1.500000 0.023097
v -0.013889 1.500000 0.020787
v -0.017678 1.500000 0.017678
v -0.020787 1.500000 0.013889
v -0.023097 1.500000 0.009567
v -0.024520 1.500000 0.004877
v -0.025000 1.500000 0.000000
v -0.024520 1.500000 -0.004877
v -0.023097 1.500000 -0.009567
v -0.020787 1.500000 -0.013889
v -0.017678 1.500000 -0.017678
v -0.013889 1.500000 -0.020787
v -0.009567 1.500000 -0.023097
v -0.004877 1.500000 -0.024520
v 0.000000 0.023256 -0.025000
v 0.004877 0.023256 -0.024520
v 0.009567 0.023256 -0.023097
v 0.013889 0.023256 -0.020787
v 0.017678 0.023256 -0.017678
v 0.020787 0.023256 -0.013889
v 0.023097 0.023256 -0.009567
v 0.024520 0.023256 -0.004877
v 0.025000 0.023256 0.000000
v 0.024520 0.023256 0.004877
v 0.023097 0.023256 0.009567
v 0.020787 0.023256 0.013889
v 0.017678 0.023256 0.017678
v 0.013889 0.023256 0.020787
v 0.009567 0.023256 0.023097
v 0.004877 0.023256 0.024520
v 0.000000 0.023256 0.025000
v -0.004877 0.023256 0.024520
v -0.009567 0.023256 0.023097
v -0.013889 0.023256 0.020787
v -0.017678 0.023256 0.017678
v -0.020787 0.023256 0.013889
v -0.023097 0.023256 0.009567
v -0.024520 0.023256 0.004877
v -0.025000 0.023256 0.000000
v -0.024520 0.023256 -0.004877
v -0.023097 0.023256 -0.009567
v -0.020787 0.023256 -0.013889
v -0.017678 0.023256 -0.017678
v -0.013889 0.023256 -0.020787
v -0.009567 0.023256 -0.023097
v -0.004877 0.023256 -0.024520
v -0.000000 0.000000 -0.246352
v 0.048061 0.000000 -0.241618
v 0.094275 0.000000 -0.227599
v 0.136866 0.000000 -0.204834
v 0.174197 0.000000 -0.174197
v 0.204834 0.000000 -0.136866
v 0.227599 0.000000 -0.094275
v 0.241618 0.000000 -0.048061
v 0.246352 0.000000 -0.000000
v 0.241618 0.000000 0.048061
v 0.227599 0.000000 0.094275
v 0.204834 0.000000 0.136866
v 0.174197 0.000000 0.174197
v 0.136866 0.000000 0.204834
v 0.094275 0.000000 0.227599
v 0.048061 0.000000 0.241618
v -0.000000 0.000000 0.246352
v -0.048061 0.000000 0.241618
v -0.094275 0.000000 0.227599
v -0.136866 0.000000 0.204834
v -0.174197 0.000000 0.174197
v -0.204834 0.000000 0.136866
v -0.227599 0.000000 0.094275
v -0.241618 0.000000 0.048061
v -0.246352 0.000000 -0.000000
v -0.241618 0.000000 -0.048061
v -0.227599 0.000000 -0.094275
v -0.204834 0.000000 -0.136866
v -0.174197 0.000000 -0.174197
v -0.136866 0.000000 -0.204834
v -0.094275 0.000000 -0.227599
v -0.048061 0.000000 -0.241618
v 0.000000 0.023256 -0.025000
v 0.004877 0.023256 -0.024520
v 0.009567 0.023256 -0.023097
v 0.013889 0.023256 -0.020787
v 0.017678 0.023256 -0.017678
v 0.020787 0.023256 -0.013889
v 0.023097 0.023256 -0.009567
v 0.024520 0.023256 -0.004877
v 0.025000 0.023256 0.000000
v 0.024520 0.023256 0.004877
v 0.023097 0.023256 0.009567
v 0.020787 0.023256 0.013889
v 0.017678 0.023256 0.017678
v 0.013889 0.023256 0.020787
v 0.009567 0.023256 0.023097
v 0.004877 0.023256 0.024520
v 0.000000 0.023256 0.025000
v -0.004877 0.023256 0.024520
v -0.009567 0.023256 0.023097
v -0.013889 0.023256 0.020787
v -0.017678 0.023256 0.017678
v -0.020787 0.023256 0.013889
v -0.023097 0.023256 0.009567
v -0.024520 0.023256 0.004877
v -0.025000 0.023256 0.000000
v -0.024520 0.023256 -0.004877
v -0.023097 0.023256 -0.009567
v -0.020787 0.023256 -0.013889
v -0.017678 0.023256 -0.017678
v -0.013889 0.023256 -0.020787
v -0.009567 0.023256 -0.023097
v -0.004877 0.023256 -0.024520
v 0.000000 0.023256 -0.025000
v 0.004877 0.023256 -0.024520
v 0.009567 0.023256 -0.023097
v 0.013889 0.023256 -0.020787
v 0.017678 0.023256 -0.017678
v 0.020787 0.023256 -0.013889
v 0.023097 0.023256 -0.009567
v 0.024520 0.023256 -0.004877
v 0.025000 0.023256 0.000000
v 0.024520 0.023256 0.004877
v 0.023097 0.023256 0.009567
v 0.020787 0.023256 0.013889
v 0.017678 0.023256 0.017678
v 0.013889 0.023256 0.020787
v 0.009567 0.023256 0.023097
v 0.004877 0.023256 0.024520
v 0.000000 0.023256 0.025000
v -0.004877 0.023256 0.024520
v -0.009567 0.023256 0.023097
v -0.013889 0.023256 0.020787
v -0.017678 0.023256 0.017678
v -0.020787 0.023256 0.013889
v -0.023097 0.023256 0.009567
v -0.024520 0.023256 0.004877
v -0.025000 0.023256 0.000000
v -0.024520 0.023256 -0.004877
v -0.023097 0.023256 -0.009567
v -0.020787 0.023256 -0.013889
v -0.017678 0.023256 -0.017678
v -0.013889 0.023256 -0.020787
v -0.009567 0.023256 -0.023097
v -0.004877 0.023256 -0.024520
v -0.000000 0.023256 -0.246352
v 0.048061 0.023256 -0.241618
v 0.094275 0.023256 -0.227599
v 0.136866 0.023256 -0.204834
v 0.174197 0.023256 -0.174197
v 0.204834 0.023256 -0.136866
v 0.227599 0.023256 -0.094275
v 0.241618 0.023256 -0.048061
v 0.246352 0.023256 -0.000000
v 0.241618 0.023256 0.048061
v 0.227599 0.023256 0.094275
v 0.204834 0.023256 0.136866
v 0.174197 0.023256 0.174197
v 0.136866 0.023256 0.204834
v 0.094275 0.023256 0.227599
v 0.048061 0.023256 0.241618
v -0.000000 0.023256 0.246352
v -0.048061 0.023256 0.241618
v -0.094275 0.023256 0.227599
v -0.136866 0.023256 0.204834
v -0.174197 0.023256 0.174197
v -0.204834 0.023256 0.136866
v -0.227599 0.023256 0.094275
v -0.241618 0.023256 0.048061
v -0.246352 0.023256 -0.000000
v -0.241618 0.023256 -0.048061
v -0.227599 0.023256 -0.094275
v -0.204834 0.023256 -0.136866
v -0.174197 0.023256 -0.174197
v -0.136866 0.023256 -0.204834
v -0.094275 0.023256 -0.227599
v -0.048061 0.023256 -0.241618
vn 0.0980 -0.0000 -0.9952
vn 0.2903 -0.0000 -0.9569
vn 0.4714 -0.0000 -0.8819
vn 0.6344 -0.0000 -0.7730
vn 0.7730 -0.0000 -0.6344
vn 0.8819 -0.0000 -0.4714
vn 0.9569 -0.0000 -0.2903
vn 0.9952 -0.0000 -0.0980
vn 0.9952 -0.0000 0.0980
vn 0.9569 -0.0000 0.2903
vn 0.8819 -0.0000 0.4714
vn 0.7730 -0.0000 0.6344
vn 0.6344 -0.0000 0.7730
vn 0.4714 -0.0000 0.8819
vn 0.2903 -0.0000 0.9569
vn 0.0980 -0.0000 0.9952
vn -0.0980 -0.0000 0.9952
vn -0.2903 -0.0000 0.9569
vn -0.4714 -0.0000 0.8819
vn -0.6344 -0.0000 0.7730
vn -0.7730 -0.0000 0.6344
vn -0.8819 -0.0000 0.4714
vn -0.9569 -0.0000 0.2903
vn -0.9952 -0.0000 0.0980
vn -0.9952 -0.0000 -0.0980
vn -0.9569 -0.0000 -0.2903
vn -0.8819 -0.0000 -0.4714
vn -0.7730 -0.0000 -0.6344
vn -0.6344 -0.0000 -0.7730
vn -0.4714 -0.0000 -0.8819
vn -0.0000 1.0000 -0.0000
vn -0.2903 -0.0000 -0.9569
vn -0.0980 -0.0000 -0.9952
vn -0.0000 -1.0000 -0.0000
vt 1.000000 0.507752
vt 1.000000 1.000000
vt 0.968750 1.000000
vt 0.968750 0.507752
vt 0.937500 1.000000
vt 0.937500 0.507752
vt 0.906250 1.000000
vt 0.906250 0.507752
vt 0.875000 1.000000
vt 0.875000 0.507752
vt 0.843750 1.000000
vt 0.843750 0.507752
vt 0.812500 1.000000
vt 0.812500 0.507752
vt 0.781250 1.000000
vt 0.781250 0.507752
vt 0.750000 1.000000
vt 0.750000 0.507752
vt 0.718750 1.000000
vt 0.718750 0.507752
vt 0.687500 1.000000
vt 0.687500 0.507752
vt 0.656250 1.000000
vt 0.656250 0.507752
vt 0.625000 1.000000
vt 0.625000 0.507752
vt 0.593750 1.000000
vt 0.593750 0.507752
vt 0.562500 1.000000
vt 0.562500 0.507752
vt 0.531250 1.000000
vt 0.531250 0.507752
vt 0.500000 1.000000
vt 0.500000 0.507752
vt 0.468750 1.000000
vt 0.468750 0.507752
vt 0.437500 1.000000
vt 0.437500 0.507752
vt 0.406250 1.000000
vt 0.406250 0.507752
vt 0.375000 1.000000
vt 0.375000 0.507752
vt 0.343750 1.000000
vt 0.343750 0.507752
vt 0.312500 1.000000
vt 0.312500 0.507752
vt 0.281250 1.000000
vt 0.281250 0.507752
vt 0.250000 1.000000
vt 0.250000 0.507752
vt 0.218750 1.000000
vt 0.218750 0.507752
vt 0.187500 1.000000
vt 0.187500 0.507752
vt 0.156250 1.000000
vt 0.156250 0.507752
vt 0.125000 1.000000
vt 0.125000 0.507752
vt 0.093750 1.000000
vt 0.093750 0.507752
vt 0.062500 1.000000
vt 0.062500 0.507752
vt 0.296822 0.485388
vt 0.250000 0.490000
vt 0.203178 0.485388
vt 0.158156 0.471731
vt 0.116663 0.449553
vt 0.080294 0.419706
vt 0.050447 0.383337
vt 0.028269 0.341844
vt 0.014612 0.296822
vt 0.010000 0.250000
vt 0.014612 0.203178
vt 0.028269 0.158156
vt 0.050447 0.116663
vt 0.080294 0.080294
vt 0.116663 0.050447
vt 0.158156 0.028269
vt 0.203178 0.014612
vt 0.250000 0.010000
vt 0.296822 0.014612
vt 0.341844 0.028269
vt 0.383337 0.050447
vt 0.419706 0.080294
vt 0.449553 0.116663
vt 0.471731 0.158156
vt 0.485388 0.203178
vt 0.490000 0.250000
vt 0.485388 0.296822
vt 0.471731 0.341844
vt 0.449553 0.383337
vt 0.419706 0.419706
vt 0.383337 0.449553
vt 0.341844 0.471731
vt 0.031250 1.000000
vt 0.031250 0.507752
vt 0.000000 1.000000
vt 0.000000 0.507752
vt 0.750000 0.490000
vt 0.796822 0.485388
vt 0.841844 0.471731
vt 0.883337 0.449553
vt 0.919706 0.419706
vt 0.949553 0.383337
vt 0.971731 0.341844
vt 0.985388 0.296822
vt 0.990000 0.250000
vt 0.985388 0.203178
vt 0.971731 0.158156
vt 0.949553 0.116663
vt 0.919706 0.080294
vt 0.883337 0.050447
vt 0.841844 0.028269
vt 0.796822 0.014612
vt 0.750000 0.010000
vt 0.703178 0.014612
vt 0.658156 0.028269
vt 0.616663 0.050447
vt 0.580294 0.080294
vt 0.550447 0.116663
vt 0.528269 0.158156
vt 0.514612 0.203178
vt 0.510000 0.250000
vt 0.514612 0.296822
vt 0.528269 0.341844
vt 0.550447 0.383337
vt 0.580294 0.419706
vt 0.616663 0.449553
vt 0.658156 0.471731
vt 0.703178 0.485388
vt 0.031250 0.500000
vt 0.000000 0.500000
vt 0.062500 0.500000
vt 0.093750 0.500000
vt 0.125000 0.500000
vt 0.156250 0.500000
vt 0.187500 0.500000
vt 0.218750 0.500000
vt 0.250000 0.500000
vt 0.281250 0.500000
vt 0.312500 0.500000
vt 0.343750 0.500000
vt 0.375000 0.500000
vt 0.406250 0.500000
vt 0.437500 0.500000
vt 0.468750 0.500000
vt 0.500000 0.500000
vt 0.531250 0.500000
vt 0.562500 0.500000
vt 0.593750 0.500000
vt 0.625000 0.500000
vt 0.656250 0.500000
vt 0.687500 0.500000
vt 0.718750 0.500000
vt 0.750000 0.500000
vt 0.781250 0.500000
vt 0.812500 0.500000
vt 0.843750 0.500000
vt 0.875000 0.500000
vt 0.906250 0.500000
vt 0.937500 0.500000
vt 0.968750 0.500000
vt 1.000000 0.500000
s 0
usemtl Material.002
f 33/1/1 1/2/1 2/3/1 34/4/1
f 34/4/2 2/3/2 3/5/2 35/6/2
f 35/6/3 3/5/3 4/7/3 36/8/3
f 36/8/4 4/7/4 5/9/4 37/10/4
f 37/10/5 5/9/5 6/11/5 38/12/5
f 38/12/6 6/11/6 7/13/6 39/14/6
f 39/14/7 7/13/7 8/15/7 40/16/7
f 40/16/8 8/15/8 9/17/8 41/18/8
f 41/18/9 9/17/9 10/19/9 42/20/9
f 42/20/10 10/19/10 11/21/10 43/22/10
f 43/22/11 11/21/11 12/23/11 44/24/11
f 44/24/12 12/23/12 13/25/12 45/26/12
f 45/26/13 13/25/13 14/27/13 46/28/13
f 46/28/14 14/27/14 15/29/14 47/30/14
f 47/30/15 15/29/15 16/31/15 48/32/15
f 48/32/16 16/31/16 17/33/16 49/34/16
f 49/34/17 17/33/17 18/35/17 50/36/17
f 50/36/18 18/35/18 19/37/18 51/38/18
f 51/38/19 19/37/19 20/39/19 52/40/19
f 52/40/20 20/39/20 21/41/20 53/42/20
f 53/42/21 21/41/21 22/43/21 54/44/21
f 54/44/22 22/43/22 23/45/22 55/46/22
f 55/46/23 23/45/23 24/47/23 56/48/23
f 56/48/24 24/47/24 25/49/24 57/50/24
f 57/50/25 25/49/25 26/51/25 58/52/25
f 58/52/26 26/51/26 27/53/26 59/54/26
f 59/54/27 27/53/27 28/55/27 60/56/27
f 60/56/28 28/55/28 29/57/28 61/58/28
f 61/58/29 29/57/29 30/59/29 62/60/29
f 62/60/30 30/59/30 31/61/30 63/62/30
f 2/63/31 1/64/31 32/65/31 31/66/31 30/67/31 29/68/31 28/69/31 27/70/31 26/71/31 25/72/31 24/73/31 23/74/31 22/75/31 21/76/31 20/77/31 19/78/31 18/79/31 17/80/31 16/81/31 15/82/31 14/83/31 13/84/31 12/85/31 11/86/31 10/87/31 9/88/31 8/89/31 7/90/31 6/91/31 5/92/31 4/93/31 3/94/31
f 63/62/32 31/61/32 32/95/32 64/96/32
f 64/96/33 32/95/33 1/97/33 33/98/33
f 44/24/31 45/26/31 109/26/31 108/24/31
f 58/52/31 59/54/31 123/54/31 122/52/31
f 45/26/31 46/28/31 110/28/31 109/26/31
f 59/54/31 60/56/31 124/56/31 123/54/31
f 46/28/31 47/30/31 111/30/31 110/28/31
f 33/1/31 34/4/31 98/4/31 97/1/31
f 60/56/31 61/58/31 125/58/31 124/56/31
f 47/30/31 48/32/31 112/32/31 111/30/31
f 34/4/31 35/6/31 99/6/31 98/4/31
f 61/58/31 62/60/31 126/60/31 125/58/31
f 48/32/31 49/34/31 113/34/31 112/32/31
f 35/6/31 36/8/31 100/8/31 99/6/31
f 62/60/31 63/62/31 127/62/31 126/60/31
f 49/34/31 50/36/31 114/36/31 113/34/31
f 36/8/31 37/10/31 101/10/31 100/8/31
f 63/62/31 64/96/31 128/96/31 127/62/31
f 50/36/31 51/38/31 115/38/31 114/36/31
f 37/10/31 38/12/31 102/12/31 101/10/31
f 64/96/31 33/98/31 97/98/31 128/96/31
f 51/38/31 52/40/31 116/40/31 115/38/31
f 38/12/31 39/14/31 103/14/31 102/12/31
f 52/40/31 53/42/31 117/42/31 116/40/31
f 39/14/31 40/16/31 104/16/31 103/14/31
f 53/42/31 54/44/31 118/44/31 117/42/31
f 40/16/31 41/18/31 105/18/31 104/16/31
f 54/44/31 55/46/31 119/46/31 118/44/31
f 41/18/31 42/20/31 106/20/31 105/18/31
f 55/46/31 56/48/31 120/48/31 119/46/31
f 42/20/31 43/22/31 107/22/31 106/20/31
f 56/48/31 57/50/31 121/50/31 120/48/31
f 43/22/31 44/24/31 108/24/31 107/22/31
f 57/50/31 58/52/31 122/52/31 121/50/31
f 65/99/34 66/100/34 67/101/34 68/102/34 69/103/34 70/104/34 71/105/34 72/106/34 73/107/34 74/108/34 75/109/34 76/110/34 77/111/34 78/112/34 79/113/34 80/114/34 81/115/34 82/116/34 83/117/34 84/118/34 85/119/34 86/120/34 87/121/34 88/122/34 89/123/34 90/124/34 91/125/34 92/126/34 93/127/34 94/128/34 95/129/34 96/130/34
f 97/1/31 98/4/31 130/4/31 129/1/31
f 124/56/31 125/58/31 157/58/31 156/56/31
f 111/30/31 112/32/31 144/32/31 143/30/31
f 98/4/31 99/6/31 131/6/31 130/4/31
f 125/58/31 126/60/31 158/60/31 157/58/31
f 112/32/31 113/34/31 145/34/31 144/32/31
f 99/6/31 100/8/31 132/8/31 131/6/31
f 126/60/31 127/62/31 159/62/31 158/60/31
f 113/34/31 114/36/31 146/36/31 145/34/31
f 100/8/31 101/10/31 133/10/31 132/8/31
f 127/62/31 128/96/31 160/96/31 159/62/31
f 114/36/31 115/38/31 147/38/31 146/36/31
f 101/10/31 102/12/31 134/12/31 133/10/31
f 128/96/31 97/98/31 129/98/31 160/96/31
f 115/38/31 116/40/31 148/40/31 147/38/31
f 102/12/31 103/14/31 135/14/31 134/12/31
f 116/40/31 117/42/31 149/42/31 148/40/31
f 103/14/31 104/16/31 136/16/31 135/14/31
f 117/42/31 118/44/31 150/44/31 149/42/31
f 104/16/31 105/18/31 137/18/31 136/16/31
f 118/44/31 119/46/31 151/46/31 150/44/31
f 105/18/31 106/20/31 138/20/31 137/18/31
f 119/46/31 120/48/31 152/48/31 151/46/31
f 106/20/31 107/22/31 139/22/31 138/20/31
f 120/48/31 121/50/31 153/50/31 152/48/31
f 107/22/31 108/24/31 140/24/31 139/22/31
f 121/50/31 122/52/31 154/52/31 153/50/31
f 108/24/31 109/26/31 141/26/31 140/24/31
f 122/52/31 123/54/31 155/54/31 154/52/31
f 109/26/31 110/28/31 142/28/31 141/26/31
f 123/54/31 124/56/31 156/56/31 155/54/31
f 110/28/31 111/30/31 143/30/31 142/28/31
f 153/50/31 154/52/31 186/52/31 185/50/31
f 140/24/31 141/26/31 173/26/31 172/24/31
f 154/52/31 155/54/31 187/54/31 186/52/31
f 141/26/31 142/28/31 174/28/31 173/26/31
f 155/54/31 156/56/31 188/56/31 187/54/31
f 142/28/31 143/30/31 175/30/31 174/28/31
f 129/1/31 130/4/31 162/4/31 161/1/31
f 156/56/31 157/58/31 189/58/31 188/56/31
f 143/30/31 144/32/31 176/32/31 175/30/31
f 130/4/31 131/6/31 163/6/31 162/4/31
f 157/58/31 158/60/31 190/60/31 189/58/31
f 144/32/31 145/34/31 177/34/31 176/32/31
f 131/6/31 132/8/31 164/8/31 163/6/31
f 158/60/31 159/62/31 191/62/31 190/60/31
f 145/34/31 146/36/31 178/36/31 177/34/31
f 132/8/31 133/10/31 165/10/31 164/8/31
f 159/62/31 160/96/31 192/96/31 191/62/31
f 146/36/31 147/38/31 179/38/31 178/36/31
f 133/10/31 134/12/31 166/12/31 165/10/31
f 160/96/31 129/98/31 161/98/31 192/96/31
f 147/38/31 148/40/31 180/40/31 179/38/31
f 134/12/31 135/14/31 167/14/31 166/12/31
f 148/40/31 149/42/31 181/42/31 180/40/31
f 135/14/31 136/16/31 168/16/31 167/14/31
f 149/42/31 150/44/31 182/44/31 181/42/31
f 136/16/31 137/18/31 169/18/31 168/16/31
f 150/44/31 151/46/31 183/46/31 182/44/31
f 137/18/31 138/20/31 170/20/31 169/18/31
f 151/46/31 152/48/31 184/48/31 183/46/31
f 138/20/31 139/22/31 171/22/31 170/20/31
f 152/48/31 153/50/31 185/50/31 184/48/31
f 139/22/31 140/24/31 172/24/31 171/22/31
f 96/131/33 192/96/33 161/98/33 65/132/33
f 95/133/32 191/62/32 192/96/32 96/131/32
f 94/134/30 190/60/30 191/62/30 95/133/30
f 93/135/29 189/58/29 190/60/29 94/134/29
f 92/136/28 188/56/28 189/58/28 93/135/28
f 91/137/27 187/54/27 188/56/27 92/136/27
f 90/138/26 186/52/26 187/54/26 91/137/26
f 89/139/25 185/50/25 186/52/25 90/138/25
f 88/140/24 184/48/24 185/50/24 89/139/24
f 87/141/23 183/46/23 184/48/23 88/140/23
f 86/142/22 182/44/22 183/46/22 87/141/22
f 85/143/21 181/42/21 182/44/21 86/142/21
f 84/144/20 180/40/20 181/42/20 85/143/20
f 83/145/19 179/38/19 180/40/19 84/144/19
f 82/146/18 178/36/18 179/38/18 83/145/18
f 81/147/17 177/34/17 178/36/17 82/146/17
f 80/148/16 176/32/16 177/34/16 81/147/16
f 79/149/15 175/30/15 176/32/15 80/148/15
f 78/150/14 174/28/14 175/30/14 79/149/14
f 77/151/13 173/26/13 174/28/13 78/150/13
f 76/152/12 172/24/12 173/26/12 77/151/12
f 75/153/11 171/22/11 172/24/11 76/152/11
f 74/154/10 170/20/10 171/22/10 75/153/10
f 73/155/9 169/18/9 170/20/9 74/154/9
f 72/156/8 168/16/8 169/18/8 73/155/8
f 71/157/7 167/14/7 168/16/7 72/156/7
f 70/158/6 166/12/6 167/14/6 71/157/6
f 69/159/5 165/10/5 166/12/5 70/158/5
f 68/160/4 164/8/4 165/10/4 69/159/4
f 67/161/3 163/6/3 164/8/3 68/160/3
f 66/162/2 162/4/2 163/6/2 67/161/2
f 65/163/1 161/1/1 162/4/1 66/162/1
o Cube
v -0.237500 1.193637 0.113015
v -0.237500 1.888431 -0.044836
v -0.250000 1.170922 0.097666
v -0.250000 1.902284 -0.068493
v 0.237500 1.193637 0.113015
v 0.237500 1.888431 -0.044836
v 0.250000 1.170922 0.097666
v 0.250000 1.902284 -0.068493
v -0.250000 1.175353 0.117169
v -0.250000 1.906715 -0.048990
v 0.250000 1.906715 -0.048990
v 0.250000 1.175353 0.117169
v -0.250000 1.179784 0.136672
v -0.250000 1.911146 -0.029487
v 0.250000 1.911146 -0.029487
v 0.250000 1.179784 0.136672
v -0.237500 1.198068 0.132518
v -0.237500 1.892862 -0.025333
v 0.237500 1.892862 -0.025333
v 0.237500 1.198068 0.132518
vn -1.0000 -0.0000 -0.0000
vn -0.0000 -0.2215 -0.9752
vn 1.0000 -0.0000 -0.0000
vn -0.0000 0.2215 0.9751
vn -0.0000 -0.9752 0.2215
vn -0.0000 0.9751 -0.2215
vt 0.161279 0.161279
vt 0.089617 0.161279
vt 0.089617 0.089617
vt 0.161279 0.089617
vt 0.663070 0.161279
vt 0.591409 0.161279
vt 0.591409 0.089617
vt 0.663070 0.089617
vt 0.412174 0.232940
vt 0.340513 0.232940
vt 0.340513 0.161279
vt 0.412174 0.161279
vt 0.910383 0.408591
vt 0.842304 0.408591
vt 0.842304 0.340513
vt 0.910383 0.340513
vt 0.161279 0.555498
vt 0.089617 0.555498
vt 0.089617 0.483836
vt 0.161279 0.483836
vt 0.412174 0.555498
vt 0.340513 0.555498
vt 0.340513 0.483836
vt 0.412174 0.483836
vt 0.157696 0.806394
vt 0.089617 0.806394
vt 0.089617 0.734732
vt 0.157696 0.734732
vt 0.089617 0.412174
vt 0.161279 0.412174
vt 0.161279 0.232940
vt 0.089617 0.232940
vt 0.405008 0.806394
vt 0.336930 0.806394
vt 0.336930 0.734732
vt 0.405008 0.734732
vt 0.661279 0.342304
vt 0.593200 0.342304
vt 0.591409 0.340513
vt 0.663070 0.340513
vt 0.593200 0.410383
vt 0.661279 0.410383
vt 0.663070 0.412175
vt 0.591409 0.412175
vt 0.584242 0.734732
vt 0.652321 0.734732
vt 0.652321 0.806394
vt 0.584242 0.806394
vt 0.340513 0.412174
vt 0.412174 0.412174
vt 0.340513 0.089617
vt 0.412174 0.089617
vt 0.910383 0.161279
vt 0.842304 0.161279
vt 0.842304 0.089617
vt 0.910383 0.089617
s 0
usemtl Material.001
f 201/164/35 202/165/35 196/166/35 195/167/35
f 195/168/36 196/169/36 200/170/36 199/171/36
f 199/172/37 200/173/37 203/174/37 204/175/37
f 197/176/38 198/177/38 194/178/38 193/179/38
f 195/180/39 199/181/39 204/182/39 201/183/39
f 200/184/40 196/185/40 202/186/40 203/187/40
f 194/188/39 198/189/39 211/190/39 210/191/39
f 201/183/39 204/182/39 208/192/39 205/193/39
f 202/165/35 201/164/35 205/194/35 206/195/35
f 193/196/37 194/197/37 210/198/37 209/199/37
f 209/200/38 210/201/38 206/202/38 205/203/38
f 211/204/38 212/205/38 208/206/38 207/207/38
f 212/205/38 209/200/38 205/203/38 208/206/38
f 210/201/38 211/204/38 207/207/38 206/202/38
f 198/208/35 197/209/35 212/210/35 211/211/35
f 203/187/40 202/186/40 206/212/40 207/213/40
f 204/175/37 203/174/37 207/214/37 208/215/37
f 197/216/40 193/217/40 209/218/40 212/219/40
