# Blender 4.3.0
# www.blender.org
mtllib straight_hall.mtl
o Cube.001
v -2.000000 0.000000 4.000000
v -2.000000 8.000000 4.000000
v -2.000000 0.000000 -4.000000
v -2.000000 8.000000 -4.000000
v 2.000000 0.000000 4.000000
v 2.000000 8.000000 4.000000
v 2.000000 0.000000 -4.000000
v 2.000000 8.000000 -4.000000
v -1.500000 3.000000 -4.000000
v -1.471178 3.292635 -4.000000
v -1.385819 3.574025 -4.000000
v -1.247204 3.833355 -4.000000
v -1.060660 4.060660 -4.000000
v -0.833355 4.247204 -4.000000
v 0.000000 4.500000 -4.000000
v -0.292636 4.471178 -4.000000
v -0.574025 4.385819 -4.000000
v -1.500000 0.000000 -4.000000
v 0.833355 4.247204 -4.000000
v 0.574025 4.385819 -4.000000
v 0.292636 4.471178 -4.000000
v 1.385819 3.574025 -4.000000
v 1.247204 3.833355 -4.000000
v 1.500000 3.000000 -4.000000
v 1.500000 0.000000 -4.000000
v 1.471178 3.292635 -4.000000
v 1.060660 4.060660 -4.000000
v 0.000000 4.500000 4.000000
v 0.574025 4.385819 4.000000
v 0.833355 4.247204 4.000000
v 0.292636 4.471178 4.000000
v 1.247204 3.833355 4.000000
v 1.385819 3.574025 4.000000
v 1.500000 3.000000 4.000000
v 1.471178 3.292635 4.000000
v 1.060660 4.060660 4.000000
v -1.500000 0.000000 4.000000
v -1.500000 3.000000 4.000000
v -1.247204 3.833355 4.000000
v -1.385819 3.574025 4.000000
v -1.471178 3.292635 4.000000
v -0.574025 4.385819 4.000000
v -0.833355 4.247204 4.000000
v 1.500000 0.000000 4.000000
v -0.292636 4.471178 4.000000
v -1.060660 4.060660 4.000000
vn -1.0000 -0.0000 -0.0000
vn -0.0000 -0.0000 -1.0000
vn 1.0000 -0.0000 -0.0000
vn -0.0000 -0.0000 1.0000
vn -0.0000 -1.0000 -0.0000
vn -0.0000 1.0000 -0.0000
vn -0.7730 -0.6344 -0.0000
vn 0.7730 -0.6344 -0.0000
vn -0.6344 -0.7730 -0.0000
vn 0.8819 -0.4714 -0.0000
vn -0.4714 -0.8819 -0.0000
vn 0.9569 -0.2903 -0.0000
vn -0.2903 -0.9569 -0.0000
vn 0.9952 -0.0980 -0.0000
vn 0.0980 -0.9952 -0.0000
vn -0.0980 -0.9952 -0.0000
vn -0.9952 -0.0980 -0.0000
vn 0.2903 -0.9569 -0.0000
vn -0.9569 -0.2903 -0.0000
vn 0.4714 -0.8819 -0.0000
vn -0.8819 -0.4714 -0.0000
vn 0.6344 -0.7730 -0.0000
vt 0.375000 0.000000
vt 0.625000 0.000000
vt 0.625000 0.250000
vt 0.375000 0.250000
vt 0.625000 0.500000
vt 0.514724 0.393290
vt 0.515625 0.375000
vt 0.375000 0.500000
vt 0.625000 0.750000
vt 0.375000 0.750000
vt 0.375000 0.781250
vt 0.468750 0.781250
vt 0.343750 0.500000
vt 0.343750 0.750000
vt 0.156250 0.750000
vt 0.125000 0.750000
vt 0.125000 0.500000
vt 0.156250 0.500000
vt 0.875000 0.500000
vt 0.875000 0.750000
vt 0.000000 0.000000
vt 0.375000 1.000000
vt 0.375000 0.968750
vt 0.468750 0.968750
vt 0.625000 1.000000
vt 0.477895 0.966949
vt 0.514724 0.893290
vt 0.515625 0.875000
vt 0.477895 0.783051
vt 0.486688 0.961614
vt 0.486688 0.788386
vt 0.494792 0.797050
vt 0.494792 0.952950
vt 0.501896 0.941291
vt 0.501896 0.808709
vt 0.507725 0.822915
vt 0.512057 0.839123
vt 0.507725 0.927085
vt 0.512057 0.910877
vt 0.514724 0.856710
vt 0.375000 0.281250
vt 0.468750 0.281250
vt 0.468750 0.468750
vt 0.375000 0.468750
vt 0.477895 0.283051
vt 0.477895 0.466949
vt 0.486688 0.461614
vt 0.486688 0.288386
vt 0.494792 0.297050
vt 0.494792 0.452950
vt 0.501896 0.441291
vt 0.501896 0.308709
vt 0.507725 0.322915
vt 0.512057 0.339123
vt 0.507725 0.427085
vt 0.512057 0.410877
vt 0.514724 0.356710
s 0
f 1/1/1 2/2/1 4/3/1 3/4/1
f 8/5/2 21/6/2 15/7/2
f 7/8/3 8/5/3 6/9/3 5/10/3
f 44/11/4 5/10/4 34/12/4
f 25/13/5 7/8/5 5/10/5 44/14/5
f 37/15/5 1/16/5 3/17/5 18/18/5
f 8/5/6 4/19/6 2/20/6 6/9/6
f 27/21/7 23/21/7 32/21/7 36/21/7
f 12/21/8 13/21/8 46/21/8 39/21/8
f 18/21/3 9/21/3 38/21/3 37/21/3
f 19/21/9 27/21/9 36/21/9 30/21/9
f 11/21/10 12/21/10 39/21/10 40/21/10
f 20/21/11 19/21/11 30/21/11 29/21/11
f 41/21/12 10/21/12 11/21/12 40/21/12
f 21/21/13 20/21/13 29/21/13 31/21/13
f 38/21/14 9/21/14 10/21/14 41/21/14
f 16/21/15 15/21/15 28/21/15 45/21/15
f 15/21/16 21/21/16 31/21/16 28/21/16
f 35/21/17 26/21/17 24/21/17 34/21/17
f 17/21/18 16/21/18 45/21/18 42/21/18
f 33/21/19 22/21/19 26/21/19 35/21/19
f 14/21/20 17/21/20 42/21/20 43/21/20
f 34/21/1 24/21/1 25/21/1 44/21/1
f 23/21/21 22/21/21 33/21/21 32/21/21
f 13/21/22 14/21/22 43/21/22 46/21/22
f 1/22/4 37/23/4 38/24/4
f 2/25/4 38/24/4 41/26/4
f 2/25/4 1/22/4 38/24/4
f 5/10/4 6/9/4 34/12/4
f 2/25/4 45/27/4 28/28/4
f 35/29/4 34/12/4 6/9/4
f 2/25/4 41/26/4 40/30/4
f 33/31/4 35/29/4 6/9/4
f 32/32/4 33/31/4 6/9/4
f 2/25/4 40/30/4 39/33/4
f 2/25/4 39/33/4 46/34/4
f 32/32/4 6/9/4 36/35/4
f 6/9/4 2/25/4 28/28/4
f 36/35/4 6/9/4 30/36/4
f 30/36/4 6/9/4 29/37/4
f 2/25/4 46/34/4 43/38/4
f 2/25/4 43/38/4 42/39/4
f 29/37/4 6/9/4 31/40/4
f 31/40/4 6/9/4 28/28/4
f 2/25/4 42/39/4 45/27/4
f 18/41/2 3/4/2 9/42/2
f 3/4/2 4/3/2 9/42/2
f 8/5/2 7/8/2 24/43/2
f 7/8/2 25/44/2 24/43/2
f 10/45/2 9/42/2 4/3/2
f 8/5/2 24/43/2 26/46/2
f 8/5/2 26/46/2 22/47/2
f 11/48/2 10/45/2 4/3/2
f 12/49/2 11/48/2 4/3/2
f 8/5/2 22/47/2 23/50/2
f 8/5/2 23/50/2 27/51/2
f 12/49/2 4/3/2 13/52/2
f 4/3/2 8/5/2 15/7/2
f 13/52/2 4/3/2 14/53/2
f 14/53/2 4/3/2 17/54/2
f 8/5/2 27/51/2 19/55/2
f 8/5/2 19/55/2 20/56/2
f 17/54/2 4/3/2 16/57/2
f 16/57/2 4/3/2 15/7/2
f 8/5/2 20/56/2 21/6/2
