# Blender 4.3.2
# www.blender.org
mtllib terminal.mtl
o desk
v 0.000000 0.000000 -0.500001
v -0.277066 1.000000 -0.668898
v 0.097545 0.000000 -0.490394
v -0.402237 1.000000 -0.601992
v 0.191342 0.000000 -0.461941
v -0.511951 1.000000 -0.511952
v 0.277785 0.000000 -0.415736
v -0.601991 1.000000 -0.402238
v 0.353553 0.000000 -0.353554
v -0.668896 1.000000 -0.277067
v 0.415735 0.000000 -0.277786
v -0.710097 1.000000 -0.141247
v 0.461940 0.000000 -0.191342
v -0.724008 1.000000 0.000000
v 0.490393 0.000000 -0.097545
v -0.710097 1.000000 0.141247
v 0.500000 0.000000 0.000000
v -0.668896 1.000000 0.277067
v 0.490393 0.000000 0.097545
v -0.601991 1.000000 0.402238
v 0.461940 0.000000 0.191342
v -0.511951 1.000000 0.511952
v 0.415735 0.000000 0.277786
v -0.402237 1.000000 0.601992
v 0.353553 0.000000 0.353554
v -0.277066 1.000000 0.668898
v 0.277785 0.000000 0.415736
v -0.141247 1.000000 0.710098
v 0.191342 0.000000 0.461941
v 0.000000 1.000000 0.724010
v 0.097545 0.000000 0.490394
v 0.141247 1.000000 0.710098
v 0.000000 0.000000 0.500001
v 0.277066 1.000000 0.668898
v -0.097545 0.000000 0.490394
v 0.402237 1.000000 0.601992
v -0.191342 0.000000 0.461941
v 0.511951 1.000000 0.511952
v -0.277785 0.000000 0.415736
v 0.601991 1.000000 0.402238
v -0.353553 0.000000 0.353554
v 0.668896 1.000000 0.277067
v -0.415735 0.000000 0.277786
v 0.710097 1.000000 0.141247
v -0.461940 0.000000 0.191342
v 0.724008 1.000000 0.000000
v -0.490393 0.000000 0.097545
v 0.710097 1.000000 -0.141247
v -0.500000 0.000000 0.000000
v 0.668896 1.000000 -0.277067
v -0.490393 0.000000 -0.097545
v 0.601991 1.000000 -0.402238
v -0.461940 0.000000 -0.191342
v 0.511951 1.000000 -0.511952
v -0.415735 0.000000 -0.277786
v 0.402237 1.000000 -0.601992
v -0.353553 0.000000 -0.353554
v 0.277066 1.000000 -0.668898
v -0.277785 0.000000 -0.415736
v 0.000000 0.961227 -0.724010
v -0.191342 0.000000 -0.461941
v 0.000000 1.000000 -0.724010
v -0.097545 0.000000 -0.490394
v 0.141247 1.000000 -0.710098
v 0.000000 0.961227 -0.500001
v 0.097545 0.961227 -0.490394
v 0.191342 0.961227 -0.461941
v 0.277785 0.961227 -0.415736
v 0.353553 0.961227 -0.353554
v 0.415735 0.961227 -0.277786
v 0.461940 0.961227 -0.191342
v 0.490393 0.961227 -0.097545
v 0.500000 0.961227 0.000000
v 0.490393 0.961227 0.097545
v 0.461940 0.961227 0.191342
v 0.415735 0.961227 0.277786
v 0.353553 0.961227 0.353554
v 0.277785 0.961227 0.415736
v 0.191342 0.961227 0.461941
v 0.097545 0.961227 0.490394
v 0.000000 0.961227 0.500001
v -0.097545 0.961227 0.490394
v -0.191342 0.961227 0.461941
v -0.277785 0.961227 0.415736
v -0.353553 0.961227 0.353554
v -0.415735 0.961227 0.277786
v -0.461940 0.961227 0.191342
v -0.490393 0.961227 0.097545
v -0.500000 0.961227 0.000000
v -0.490393 0.961227 -0.097545
v -0.461940 0.961227 -0.191342
v -0.415735 0.961227 -0.277786
v -0.353553 0.961227 -0.353554
v -0.277785 0.961227 -0.415736
v -0.191342 0.961227 -0.461941
v -0.097545 0.961227 -0.490394
v 0.097545 1.000000 -0.490394
v 0.000000 1.000000 -0.500001
v 0.000000 0.961227 -0.500001
v 0.191342 1.000000 -0.461941
v 0.277785 1.000000 -0.415736
v 0.353553 1.000000 -0.353554
v 0.415735 1.000000 -0.277786
v 0.461940 1.000000 -0.191342
v 0.490393 1.000000 -0.097545
v 0.500000 1.000000 0.000000
v 0.490393 1.000000 0.097545
v 0.461940 1.000000 0.191342
v 0.415735 1.000000 0.277786
v 0.353553 1.000000 0.353554
v 0.277785 1.000000 0.415736
v 0.191342 1.000000 0.461941
v 0.097545 1.000000 0.490394
v 0.000000 1.000000 0.500001
v -0.097545 1.000000 0.490394
v -0.191342 1.000000 0.461941
v -0.277785 1.000000 0.415736
v -0.353553 1.000000 0.353554
v -0.415735 1.000000 0.277786
v -0.461940 1.000000 0.191342
v -0.490393 1.000000 0.097545
v -0.500000 1.000000 0.000000
v -0.490393 1.000000 -0.097545
v -0.461940 1.000000 -0.191342
v -0.415735 1.000000 -0.277786
v -0.353553 1.000000 -0.353554
v -0.277785 1.000000 -0.415736
v -0.191342 1.000000 -0.461941
v -0.097545 1.000000 -0.490394
v 0.097545 0.961227 -0.490394
v 0.191342 0.961227 -0.461941
v 0.277785 0.961227 -0.415736
v 0.353553 0.961227 -0.353554
v 0.415735 0.961227 -0.277786
v 0.461940 0.961227 -0.191342
v 0.490393 0.961227 -0.097545
v 0.500000 0.961227 0.000000
v 0.490393 0.961227 0.097545
v 0.461940 0.961227 0.191342
v 0.415735 0.961227 0.277786
v 0.353553 0.961227 0.353554
v 0.277785 0.961227 0.415736
v 0.191342 0.961227 0.461941
v 0.097545 0.961227 0.490394
v 0.000000 0.961227 0.500001
v -0.097545 0.961227 0.490394
v -0.191342 0.961227 0.461941
v -0.277785 0.961227 0.415736
v -0.353553 0.961227 0.353554
v -0.415735 0.961227 0.277786
v -0.461940 0.961227 0.191342
v -0.490393 0.961227 0.097545
v -0.500000 0.961227 0.000000
v -0.490393 0.961227 -0.097545
v -0.461940 0.961227 -0.191342
v -0.415735 0.961227 -0.277786
v -0.353553 0.961227 -0.353554
v -0.277785 0.961227 -0.415736
v -0.191342 0.961227 -0.461941
v -0.097545 0.961227 -0.490394
v -0.141247 1.000000 -0.710098
v 0.141247 0.961227 -0.710098
v 0.277066 0.961227 -0.668898
v 0.402237 0.961227 -0.601992
v 0.511951 0.961227 -0.511952
v 0.601991 0.961227 -0.402238
v 0.668896 0.961227 -0.277067
v 0.710097 0.961227 -0.141247
v 0.724008 0.961227 0.000000
v 0.710097 0.961227 0.141247
v 0.668896 0.961227 0.277067
v 0.601991 0.961227 0.402238
v 0.511951 0.961227 0.511952
v 0.402237 0.961227 0.601992
v 0.277066 0.961227 0.668898
v 0.141247 0.961227 0.710098
v 0.000000 0.961227 0.724010
v -0.141247 0.961227 0.710098
v -0.277066 0.961227 0.668898
v -0.402237 0.961227 0.601992
v -0.511951 0.961227 0.511952
v -0.601991 0.961227 0.402238
v -0.668896 0.961227 0.277067
v -0.710097 0.961227 0.141247
v -0.724008 0.961227 0.000000
v -0.710097 0.961227 -0.141247
v -0.668896 0.961227 -0.277067
v -0.601991 0.961227 -0.402238
v -0.511951 0.961227 -0.511952
v -0.402237 0.961227 -0.601992
v -0.277066 0.961227 -0.668898
v -0.141247 0.961227 -0.710098
vn 0.0980 -0.0000 -0.9952
vn -0.0000 1.0000 -0.0000
vn -0.0000 -1.0000 -0.0000
vn -0.0980 -0.0000 -0.9952
vn -0.2903 -0.0000 -0.9569
vn -0.4714 -0.0000 -0.8819
vn -0.6344 -0.0000 -0.7730
vn -0.7730 -0.0000 -0.6344
vn -0.8819 -0.0000 -0.4714
vn -0.9569 -0.0000 -0.2903
vn -0.9952 -0.0000 -0.0980
vn -0.9952 -0.0000 0.0980
vn -0.9569 -0.0000 0.2903
vn -0.8819 -0.0000 0.4714
vn -0.7730 -0.0000 0.6344
vn -0.6344 -0.0000 0.7730
vn -0.4714 -0.0000 0.8819
vn -0.2903 -0.0000 0.9569
vn -0.0980 -0.0000 0.9952
vn 0.0980 -0.0000 0.9952
vn 0.2903 -0.0000 0.9569
vn 0.4714 -0.0000 0.8819
vn 0.6344 -0.0000 0.7730
vn 0.7730 -0.0000 0.6344
vn 0.8819 -0.0000 0.4714
vn 0.9569 -0.0000 0.2903
vn 0.9952 -0.0000 0.0980
vn 0.9952 -0.0000 -0.0980
vn 0.9569 -0.0000 -0.2903
vn 0.8819 -0.0000 -0.4714
vn 0.7730 -0.0000 -0.6344
vn 0.6344 -0.0000 -0.7730
vn 0.4714 -0.0000 -0.8819
vn 0.2903 -0.0000 -0.9569
vt 1.000000 0.980614
vt 1.000000 1.000000
vt 0.968750 1.000000
vt 0.968750 0.980613
vt 0.562500 0.980614
vt 0.593750 0.980613
vt 0.125000 0.980614
vt 0.156250 0.980614
vt 0.531250 0.980613
vt 0.937500 0.980613
vt 0.093750 0.980613
vt 0.500000 0.980614
vt 0.906250 0.980614
vt 0.062500 0.980614
vt 0.468750 0.980613
vt 0.875000 0.980614
vt 0.031250 0.980613
vt 0.437500 0.980613
vt 0.843750 0.980613
vt 0.000000 0.980614
vt 0.406250 0.980614
vt 0.812500 0.980614
vt 0.375000 0.980614
vt 0.781250 0.980613
vt 0.343750 0.980613
vt 0.750000 0.980614
vt 0.312500 0.980614
vt 0.718750 0.980613
vt 0.281250 0.980613
vt 0.687500 0.980613
vt 0.250000 0.980614
vt 0.656250 0.980614
vt 0.218750 0.980613
vt 0.625000 0.980614
vt 0.187500 0.980613
vt 0.750000 0.490000
vt 0.796822 0.485388
vt 0.841844 0.471731
vt 0.883337 0.449553
vt 0.919706 0.419706
vt 0.949553 0.383337
vt 0.971731 0.341844
vt 0.985388 0.296822
vt 0.990000 0.250000
vt 0.985388 0.203178
vt 0.971731 0.158156
vt 0.949553 0.116663
vt 0.919706 0.080294
vt 0.883337 0.050447
vt 0.841844 0.028269
vt 0.796822 0.014612
vt 0.750000 0.010000
vt 0.703178 0.014612
vt 0.658156 0.028269
vt 0.616663 0.050447
vt 0.580294 0.080294
vt 0.550447 0.116663
vt 0.528269 0.158156
vt 0.514612 0.203178
vt 0.510000 0.250000
vt 0.514612 0.296822
vt 0.528269 0.341844
vt 0.550447 0.383337
vt 0.580294 0.419706
vt 0.616663 0.449553
vt 0.658156 0.471731
vt 0.703178 0.485388
vt 0.031250 0.500000
vt 0.000000 0.500000
vt 0.062500 0.500000
vt 0.093750 0.500000
vt 0.125000 0.500000
vt 0.156250 0.500000
vt 0.187500 0.500000
vt 0.218750 0.500000
vt 0.250000 0.500000
vt 0.281250 0.500000
vt 0.312500 0.500000
vt 0.343750 0.500000
vt 0.375000 0.500000
vt 0.406250 0.500000
vt 0.437500 0.500000
vt 0.468750 0.500000
vt 0.500000 0.500000
vt 0.531250 0.500000
vt 0.562500 0.500000
vt 0.593750 0.500000
vt 0.625000 0.500000
vt 0.656250 0.500000
vt 0.687500 0.500000
vt 0.718750 0.500000
vt 0.750000 0.500000
vt 0.781250 0.500000
vt 0.812500 0.500000
vt 0.843750 0.500000
vt 0.875000 0.500000
vt 0.906250 0.500000
vt 0.937500 0.500000
vt 0.968750 0.500000
vt 1.000000 0.500000
vt 0.383337 0.449553
vt 0.419706 0.419706
vt 0.116663 0.449553
vt 0.158156 0.471731
vt 0.341844 0.471731
vt 0.080294 0.419706
vt 0.296822 0.485388
vt 0.050447 0.383337
vt 0.028269 0.341844
vt 0.250000 0.490000
vt 0.014612 0.296822
vt 0.010000 0.250000
vt 0.014612 0.203178
vt 0.028269 0.158156
vt 0.050447 0.116663
vt 0.080294 0.080294
vt 0.116663 0.050447
vt 0.158156 0.028269
vt 0.203178 0.014612
vt 0.203178 0.485388
vt 0.250000 0.010000
vt 0.296822 0.014612
vt 0.341844 0.028269
vt 0.383337 0.050447
vt 0.419706 0.080294
vt 0.449553 0.116663
vt 0.471731 0.158156
vt 0.485388 0.203178
vt 0.490000 0.250000
vt 0.485388 0.296822
vt 0.471731 0.341844
vt 0.449553 0.383337
vt 0.937500 1.000000
vt 0.906250 1.000000
vt 0.875000 1.000000
vt 0.843750 1.000000
vt 0.812500 1.000000
vt 0.781250 1.000000
vt 0.750000 1.000000
vt 0.718750 1.000000
vt 0.687500 1.000000
vt 0.656250 1.000000
vt 0.625000 1.000000
vt 0.593750 1.000000
vt 0.562500 1.000000
vt 0.531250 1.000000
vt 0.500000 1.000000
vt 0.468750 1.000000
vt 0.437500 1.000000
vt 0.406250 1.000000
vt 0.375000 1.000000
vt 0.343750 1.000000
vt 0.312500 1.000000
vt 0.281250 1.000000
vt 0.250000 1.000000
vt 0.218750 1.000000
vt 0.187500 1.000000
vt 0.156250 1.000000
vt 0.125000 1.000000
vt 0.093750 1.000000
vt 0.062500 1.000000
vt 0.031250 1.000000
vt 0.000000 1.000000
s 0
f 60/1/1 62/2/1 64/3/1 162/4/1
f 79/5/2 78/6/2 142/6/2 143/5/2
f 66/4/2 65/1/2 99/1/2 130/4/2
f 93/7/2 92/8/2 156/8/2 157/7/2
f 80/9/2 79/5/2 143/5/2 144/9/2
f 67/10/2 66/4/2 130/4/2 131/10/2
f 94/11/2 93/7/2 157/7/2 158/11/2
f 81/12/2 80/9/2 144/9/2 145/12/2
f 68/13/2 67/10/2 131/10/2 132/13/2
f 95/14/2 94/11/2 158/11/2 159/14/2
f 82/15/2 81/12/2 145/12/2 146/15/2
f 69/16/2 68/13/2 132/13/2 133/16/2
f 96/17/2 95/14/2 159/14/2 160/17/2
f 83/18/2 82/15/2 146/15/2 147/18/2
f 70/19/2 69/16/2 133/16/2 134/19/2
f 65/20/2 96/17/2 160/17/2 99/20/2
f 84/21/2 83/18/2 147/18/2 148/21/2
f 71/22/2 70/19/2 134/19/2 135/22/2
f 85/23/2 84/21/2 148/21/2 149/23/2
f 72/24/2 71/22/2 135/22/2 136/24/2
f 86/25/2 85/23/2 149/23/2 150/25/2
f 73/26/2 72/24/2 136/24/2 137/26/2
f 87/27/2 86/25/2 150/25/2 151/27/2
f 74/28/2 73/26/2 137/26/2 138/28/2
f 88/29/2 87/27/2 151/27/2 152/29/2
f 75/30/2 74/28/2 138/28/2 139/30/2
f 89/31/2 88/29/2 152/29/2 153/31/2
f 76/32/2 75/30/2 139/30/2 140/32/2
f 90/33/2 89/31/2 153/31/2 154/33/2
f 77/34/2 76/32/2 140/32/2 141/34/2
f 91/35/2 90/33/2 154/33/2 155/35/2
f 78/6/2 77/34/2 141/34/2 142/6/2
f 92/8/2 91/35/2 155/35/2 156/8/2
f 1/36/3 3/37/3 5/38/3 7/39/3 9/40/3 11/41/3 13/42/3 15/43/3 17/44/3 19/45/3 21/46/3 23/47/3 25/48/3 27/49/3 29/50/3 31/51/3 33/52/3 35/53/3 37/54/3 39/55/3 41/56/3 43/57/3 45/58/3 47/59/3 49/60/3 51/61/3 53/62/3 55/63/3 57/64/3 59/65/3 61/66/3 63/67/3
f 63/68/4 96/17/4 65/20/4 1/69/4
f 61/70/5 95/14/5 96/17/5 63/68/5
f 59/71/6 94/11/6 95/14/6 61/70/6
f 57/72/7 93/7/7 94/11/7 59/71/7
f 55/73/8 92/8/8 93/7/8 57/72/8
f 53/74/9 91/35/9 92/8/9 55/73/9
f 51/75/10 90/33/10 91/35/10 53/74/10
f 49/76/11 89/31/11 90/33/11 51/75/11
f 47/77/12 88/29/12 89/31/12 49/76/12
f 45/78/13 87/27/13 88/29/13 47/77/13
f 43/79/14 86/25/14 87/27/14 45/78/14
f 41/80/15 85/23/15 86/25/15 43/79/15
f 39/81/16 84/21/16 85/23/16 41/80/16
f 37/82/17 83/18/17 84/21/17 39/81/17
f 35/83/18 82/15/18 83/18/18 37/82/18
f 33/84/19 81/12/19 82/15/19 35/83/19
f 31/85/20 80/9/20 81/12/20 33/84/20
f 29/86/21 79/5/21 80/9/21 31/85/21
f 27/87/22 78/6/22 79/5/22 29/86/22
f 25/88/23 77/34/23 78/6/23 27/87/23
f 23/89/24 76/32/24 77/34/24 25/88/24
f 21/90/25 75/30/25 76/32/25 23/89/25
f 19/91/26 74/28/26 75/30/26 21/90/26
f 17/92/27 73/26/27 74/28/27 19/91/27
f 15/93/28 72/24/28 73/26/28 17/92/28
f 13/94/29 71/22/29 72/24/29 15/93/29
f 11/95/30 70/19/30 71/22/30 13/94/30
f 9/96/31 69/16/31 70/19/31 11/95/31
f 7/97/32 68/13/32 69/16/32 9/96/32
f 5/98/33 67/10/33 68/13/33 7/97/33
f 3/99/34 66/4/34 67/10/34 5/98/34
f 1/100/1 65/1/1 66/4/1 3/99/1
f 142/6/3 141/34/3 173/34/3 174/6/3
f 101/101/2 102/102/2 54/102/2 56/101/2
f 127/103/2 128/104/2 2/104/2 4/103/2
f 143/5/3 142/6/3 174/6/3 175/5/3
f 100/105/2 101/101/2 56/101/2 58/105/2
f 126/106/2 127/103/2 4/103/2 6/106/2
f 144/9/3 143/5/3 175/5/3 176/9/3
f 97/107/2 100/105/2 58/105/2 64/107/2
f 125/108/2 126/106/2 6/106/2 8/108/2
f 145/12/3 144/9/3 176/9/3 177/12/3
f 124/109/2 125/108/2 8/108/2 10/109/2
f 146/15/3 145/12/3 177/12/3 178/15/3
f 98/110/2 97/107/2 64/107/2 62/110/2
f 123/111/2 124/109/2 10/109/2 12/111/2
f 147/18/3 146/15/3 178/15/3 179/18/3
f 122/112/2 123/111/2 12/111/2 14/112/2
f 148/21/3 147/18/3 179/18/3 180/21/3
f 121/113/2 122/112/2 14/112/2 16/113/2
f 149/23/3 148/21/3 180/21/3 181/23/3
f 120/114/2 121/113/2 16/113/2 18/114/2
f 150/25/3 149/23/3 181/23/3 182/25/3
f 119/115/2 120/114/2 18/114/2 20/115/2
f 151/27/3 150/25/3 182/25/3 183/27/3
f 118/116/2 119/115/2 20/115/2 22/116/2
f 152/29/3 151/27/3 183/27/3 184/29/3
f 117/117/2 118/116/2 22/116/2 24/117/2
f 153/31/3 152/29/3 184/29/3 185/31/3
f 116/118/2 117/117/2 24/117/2 26/118/2
f 154/33/3 153/31/3 185/31/3 186/33/3
f 115/119/2 116/118/2 26/118/2 28/119/2
f 97/107/2 98/110/2 129/120/2 128/104/2 127/103/2 126/106/2 125/108/2 124/109/2 123/111/2 122/112/2 121/113/2 120/114/2 119/115/2 118/116/2 117/117/2 116/118/2 115/119/2 114/121/2 113/122/2 112/123/2 111/124/2 110/125/2 109/126/2 108/127/2 107/128/2 106/129/2 105/130/2 104/131/2 103/132/2 102/102/2 101/101/2 100/105/2
f 155/35/3 154/33/3 186/33/3 187/35/3
f 114/121/2 115/119/2 28/119/2 30/121/2
f 162/4/34 64/3/34 58/133/34 163/10/34
f 163/10/33 58/133/33 56/134/33 164/13/33
f 164/13/32 56/134/32 54/135/32 165/16/32
f 165/16/31 54/135/31 52/136/31 166/19/31
f 166/19/30 52/136/30 50/137/30 167/22/30
f 167/22/29 50/137/29 48/138/29 168/24/29
f 168/24/28 48/138/28 46/139/28 169/26/28
f 169/26/27 46/139/27 44/140/27 170/28/27
f 170/28/26 44/140/26 42/141/26 171/30/26
f 171/30/25 42/141/25 40/142/25 172/32/25
f 172/32/24 40/142/24 38/143/24 173/34/24
f 173/34/23 38/143/23 36/144/23 174/6/23
f 174/6/22 36/144/22 34/145/22 175/5/22
f 175/5/21 34/145/21 32/146/21 176/9/21
f 176/9/20 32/146/20 30/147/20 177/12/20
f 177/12/19 30/147/19 28/148/19 178/15/19
f 178/15/18 28/148/18 26/149/18 179/18/18
f 179/18/17 26/149/17 24/150/17 180/21/17
f 180/21/16 24/150/16 22/151/16 181/23/16
f 181/23/15 22/151/15 20/152/15 182/25/15
f 182/25/14 20/152/14 18/153/14 183/27/14
f 183/27/13 18/153/13 16/154/13 184/29/13
f 184/29/12 16/154/12 14/155/12 185/31/12
f 185/31/11 14/155/11 12/156/11 186/33/11
f 186/33/10 12/156/10 10/157/10 187/35/10
f 187/35/9 10/157/9 8/158/9 188/8/9
f 188/8/8 8/158/8 6/159/8 189/7/8
f 189/7/7 6/159/7 4/160/7 190/11/7
f 190/11/6 4/160/6 2/161/6 191/14/6
f 191/14/5 2/161/5 161/162/5 192/17/5
f 192/17/4 161/162/4 62/163/4 60/20/4
f 128/104/2 129/120/2 161/120/2 2/104/2
f 102/102/2 103/132/2 52/132/2 54/102/2
f 141/34/3 140/32/3 172/32/3 173/34/3
f 129/120/2 98/110/2 62/110/2 161/120/2
f 103/132/2 104/131/2 50/131/2 52/132/2
f 140/32/3 139/30/3 171/30/3 172/32/3
f 104/131/2 105/130/2 48/130/2 50/131/2
f 139/30/3 138/28/3 170/28/3 171/30/3
f 105/130/2 106/129/2 46/129/2 48/130/2
f 138/28/3 137/26/3 169/26/3 170/28/3
f 106/129/2 107/128/2 44/128/2 46/129/2
f 137/26/3 136/24/3 168/24/3 169/26/3
f 107/128/2 108/127/2 42/127/2 44/128/2
f 136/24/3 135/22/3 167/22/3 168/24/3
f 108/127/2 109/126/2 40/126/2 42/127/2
f 135/22/3 134/19/3 166/19/3 167/22/3
f 99/20/3 160/17/3 192/17/3 60/20/3
f 109/126/2 110/125/2 38/125/2 40/126/2
f 134/19/3 133/16/3 165/16/3 166/19/3
f 160/17/3 159/14/3 191/14/3 192/17/3
f 110/125/2 111/124/2 36/124/2 38/125/2
f 133/16/3 132/13/3 164/13/3 165/16/3
f 159/14/3 158/11/3 190/11/3 191/14/3
f 111/124/2 112/123/2 34/123/2 36/124/2
f 132/13/3 131/10/3 163/10/3 164/13/3
f 158/11/3 157/7/3 189/7/3 190/11/3
f 112/123/2 113/122/2 32/122/2 34/123/2
f 131/10/3 130/4/3 162/4/3 163/10/3
f 157/7/3 156/8/3 188/8/3 189/7/3
f 113/122/2 114/121/2 30/121/2 32/122/2
f 130/4/3 99/1/3 60/1/3 162/4/3
f 156/8/3 155/35/3 187/35/3 188/8/3
o Cube
v -0.451258 1.000000 0.412810
v -0.451258 1.963217 0.412810
v -0.247669 1.217282 -0.587190
v -0.247669 1.745934 -0.587190
v 0.451258 1.000000 0.412810
v 0.451258 1.963217 0.412810
v 0.247669 1.217282 -0.587190
v 0.247669 1.745934 -0.587190
v -0.451258 1.000000 0.094115
v -0.451258 1.963217 0.094115
v 0.451258 1.000000 0.094115
v 0.451258 1.963217 0.094115
v -0.500000 1.000000 0.094115
v -0.500000 1.000000 0.412810
v -0.499994 2.000000 0.412810
v 0.499994 2.000000 0.094115
v 0.499994 2.000000 0.412810
v 0.500000 1.000000 0.412810
v -0.499994 2.000000 0.094115
v 0.500000 1.000000 0.094115
v -0.451258 1.000000 0.412810
v -0.451258 1.963217 0.412810
v 0.451258 1.963217 0.412810
v 0.451258 1.000000 0.412810
v 0.451258 1.054354 0.412810
v -0.451258 1.054345 0.412810
v -0.451258 1.054345 0.360997
v -0.451258 1.963217 0.360997
v 0.451258 1.963217 0.360997
v 0.451258 1.054354 0.360997
vn -0.9581 -0.0000 -0.2863
vn -0.0000 -0.0000 -1.0000
vn -0.0000 -0.0000 1.0000
vn -0.0000 1.0000 -0.0000
vn -0.0000 -1.0000 -0.0000
vn -0.0000 0.9527 -0.3038
vn -0.0000 -0.9527 -0.3038
vn 0.9581 -0.0000 -0.2863
vn 1.0000 -0.0000 -0.0000
vn -1.0000 -0.0000 -0.0000
vt 0.563073 0.412143
vt 0.563073 0.332010
vt 0.620101 0.350087
vt 0.620101 0.394067
vt 0.826229 0.375990
vt 0.782249 0.375990
vt 0.782249 0.332010
vt 0.826229 0.332010
vt 0.084134 0.085402
vt 0.084134 0.165534
vt 0.081074 0.169862
vt 0.081074 0.081075
vt 0.918926 0.574291
vt 0.138064 0.416471
vt 0.138064 0.336338
vt 0.163165 0.336338
vt 0.163165 0.416471
vt 0.163165 0.420798
vt 0.138064 0.420798
vt 0.382303 0.592367
vt 0.382303 0.636348
vt 0.325313 0.654424
vt 0.325313 0.574291
vt 0.081074 0.398394
vt 0.081074 0.354414
vt 0.571756 0.143130
vt 0.571756 0.099150
vt 0.628784 0.081074
vt 0.628784 0.161207
vt 0.329475 0.165534
vt 0.409608 0.165534
vt 0.409608 0.169862
vt 0.326415 0.169862
vt 0.081074 0.666139
vt 0.081074 0.582946
vt 0.106151 0.582946
vt 0.106151 0.666139
vt 0.569552 0.574291
vt 0.569552 0.663078
vt 0.544451 0.663078
vt 0.544451 0.574291
vt 0.731700 0.657484
vt 0.731700 0.574291
vt 0.756778 0.574291
vt 0.756778 0.657484
vt 0.164267 0.165534
vt 0.164267 0.169862
vt 0.409608 0.085402
vt 0.329475 0.085402
vt 0.326415 0.081075
vt 0.409608 0.081074
vt 0.138064 0.332010
vt 0.163165 0.332010
vt 0.164267 0.085402
vt 0.164267 0.081074
vt 0.790932 0.081074
vt 0.795454 0.081074
vt 0.795453 0.161207
vt 0.790932 0.161207
vt 0.081074 0.908420
vt 0.081074 0.828287
vt 0.081074 0.903898
vt 0.329394 0.816572
vt 0.329394 0.896705
vt 0.325313 0.896705
vt 0.325313 0.816572
vt 0.400925 0.332010
vt 0.400924 0.412143
vt 0.325313 0.412143
vt 0.325313 0.332010
vt 0.731700 0.899765
vt 0.731700 0.819632
vt 0.735781 0.819632
vt 0.735781 0.899765
vt 0.897929 0.895243
vt 0.897929 0.819632
vt 0.902007 0.819632
vt 0.902007 0.895243
vt 0.548528 0.825226
vt 0.548528 0.900838
vt 0.544451 0.900838
vt 0.544451 0.825226
s 0
usemtl Material.001
f 201/164/35 202/165/35 196/166/35 195/167/35
f 195/168/36 196/169/36 200/170/36 199/171/36
f 194/172/37 198/173/37 209/174/37 207/175/37
f 198/176/38 194/176/38 214/176/38 215/176/38
f 201/177/39 203/178/39 197/179/39 193/180/39
f 201/177/39 193/180/39 206/181/39 205/182/39
f 200/183/40 196/184/40 202/185/40 204/186/40
f 195/187/41 199/188/41 203/178/41 201/177/41
f 199/189/42 200/190/42 204/191/42 203/192/42
f 202/193/36 201/194/36 205/195/36 211/196/36
f 212/197/43 208/198/43 209/199/43 210/200/43
f 208/201/38 211/202/38 207/203/38 209/204/38
f 206/205/44 207/206/44 211/207/44 205/208/44
f 198/173/37 197/209/37 210/210/37 209/174/37
f 203/211/36 204/212/36 208/213/36 212/214/36
f 204/212/36 202/193/36 211/196/36 208/213/36
f 197/179/39 203/178/39 212/215/39 210/216/39
f 193/217/37 194/172/37 207/175/37 206/218/37
f 216/219/37 217/220/37 218/221/37 213/222/37
f 197/223/36 198/224/36 215/224/36 217/225/36 216/223/36
f 194/176/38 193/176/38 213/176/38 218/176/38 214/176/38
f 193/176/38 197/176/38 216/176/38 213/176/38
f 215/226/39 214/227/39 220/228/39 221/229/39
f 219/230/37 222/231/37 221/232/37 220/233/37
f 218/234/38 217/235/38 222/236/38 219/237/38
f 217/238/44 215/239/44 221/240/44 222/241/44
f 214/242/43 218/243/43 219/244/43 220/245/43
